<mxfile host="Electron" modified="2024-05-26T09:54:28.416Z" agent="Mozilla/5.0 (Windows NT 10.0; Win64; x64) AppleWebKit/537.36 (KHTML, like Gecko) draw.io/24.4.0 Chrome/120.0.6099.109 Electron/28.1.0 Safari/537.36" etag="CaXK51qjN4z7OSji_p_-" version="24.4.0" type="device" pages="3">
  <diagram id="gTcWPlsqETtujV5M5H4J" name="Class Form1">
    <mxGraphModel dx="1290" dy="725" grid="1" gridSize="10" guides="1" tooltips="1" connect="1" arrows="1" fold="1" page="1" pageScale="1" pageWidth="827" pageHeight="1169" math="0" shadow="0">
      <root>
        <mxCell id="0" />
        <mxCell id="1" parent="0" />
        <mxCell id="gYR5J95TfdXIMAkzPQqD-7" value="" style="edgeStyle=orthogonalEdgeStyle;rounded=0;orthogonalLoop=1;jettySize=auto;html=1;" parent="1" source="gYR5J95TfdXIMAkzPQqD-2" target="gYR5J95TfdXIMAkzPQqD-5" edge="1">
          <mxGeometry relative="1" as="geometry" />
        </mxCell>
        <mxCell id="gYR5J95TfdXIMAkzPQqD-2" value="Початок" style="rounded=1;whiteSpace=wrap;html=1;fillColor=#90F04F;" parent="1" vertex="1">
          <mxGeometry x="63.05000000000001" y="40" width="120" height="60" as="geometry" />
        </mxCell>
        <mxCell id="gYR5J95TfdXIMAkzPQqD-3" value="class Program" style="text;html=1;align=center;verticalAlign=middle;resizable=0;points=[];autosize=1;strokeColor=none;fillColor=none;" parent="1" vertex="1">
          <mxGeometry x="73.05000000000001" width="100" height="30" as="geometry" />
        </mxCell>
        <mxCell id="gYR5J95TfdXIMAkzPQqD-5" value="Program" style="rounded=0;whiteSpace=wrap;html=1;" parent="1" vertex="1">
          <mxGeometry x="40.05000000000001" y="140" width="166" height="70" as="geometry" />
        </mxCell>
        <mxCell id="gYR5J95TfdXIMAkzPQqD-8" value="// Загальгий клас" style="text;html=1;align=center;verticalAlign=middle;resizable=0;points=[];autosize=1;strokeColor=#67AB9F;fillColor=none;" parent="1" vertex="1">
          <mxGeometry x="138.05" y="105" width="120" height="30" as="geometry" />
        </mxCell>
        <mxCell id="gYR5J95TfdXIMAkzPQqD-17" value="1" style="ellipse;shape=doubleEllipse;whiteSpace=wrap;html=1;aspect=fixed;strokeColor=#9999FF;" parent="1" vertex="1">
          <mxGeometry x="90.00000000000004" y="260" width="66" height="66" as="geometry" />
        </mxCell>
        <mxCell id="gYR5J95TfdXIMAkzPQqD-19" value="2" style="ellipse;shape=doubleEllipse;whiteSpace=wrap;html=1;aspect=fixed;strokeColor=#CC99FF;" parent="1" vertex="1">
          <mxGeometry x="90.00000000000004" y="390" width="66" height="66" as="geometry" />
        </mxCell>
        <mxCell id="gYR5J95TfdXIMAkzPQqD-20" value="3" style="ellipse;shape=doubleEllipse;whiteSpace=wrap;html=1;aspect=fixed;strokeColor=#FFFF00;" parent="1" vertex="1">
          <mxGeometry x="90.00000000000004" y="520" width="66" height="66" as="geometry" />
        </mxCell>
        <mxCell id="gYR5J95TfdXIMAkzPQqD-23" value="" style="endArrow=classic;startArrow=classic;html=1;rounded=0;exitX=0.5;exitY=0;exitDx=0;exitDy=0;" parent="1" edge="1">
          <mxGeometry width="50" height="50" relative="1" as="geometry">
            <mxPoint x="122.00000000000004" y="390" as="sourcePoint" />
            <mxPoint x="122.00000000000004" y="330" as="targetPoint" />
          </mxGeometry>
        </mxCell>
        <mxCell id="gYR5J95TfdXIMAkzPQqD-24" value="" style="endArrow=classic;startArrow=classic;html=1;rounded=0;exitX=0.5;exitY=0;exitDx=0;exitDy=0;" parent="1" edge="1">
          <mxGeometry width="50" height="50" relative="1" as="geometry">
            <mxPoint x="123.00000000000004" y="516" as="sourcePoint" />
            <mxPoint x="123.00000000000004" y="456" as="targetPoint" />
          </mxGeometry>
        </mxCell>
        <mxCell id="gYR5J95TfdXIMAkzPQqD-25" value="Class&amp;nbsp;&lt;div&gt;SortingAlgorithms&lt;/div&gt;" style="shape=callout;whiteSpace=wrap;html=1;perimeter=calloutPerimeter;position2=0;base=20;size=30;position=0.14;" parent="1" vertex="1">
          <mxGeometry x="158" y="230" width="163.04" height="60" as="geometry" />
        </mxCell>
        <mxCell id="gYR5J95TfdXIMAkzPQqD-29" value="Class&lt;div&gt;ArrayType&lt;/div&gt;" style="shape=callout;whiteSpace=wrap;html=1;perimeter=calloutPerimeter;position2=0;base=20;size=30;position=0.14;" parent="1" vertex="1">
          <mxGeometry x="156.00000000000003" y="480" width="143" height="60" as="geometry" />
        </mxCell>
        <mxCell id="gYR5J95TfdXIMAkzPQqD-30" value="Class&lt;div&gt;BenchmarkConfig&lt;/div&gt;" style="shape=callout;whiteSpace=wrap;html=1;perimeter=calloutPerimeter;position2=0;base=20;size=30;position=0.14;" parent="1" vertex="1">
          <mxGeometry x="156.00000000000003" y="350" width="123" height="60" as="geometry" />
        </mxCell>
        <mxCell id="HySqlshbMLwH49JAa5QG-6" value="" style="endArrow=classic;startArrow=classic;html=1;rounded=0;exitX=0.505;exitY=-0.021;exitDx=0;exitDy=0;exitPerimeter=0;" parent="1" edge="1">
          <mxGeometry width="50" height="50" relative="1" as="geometry">
            <mxPoint x="124.27545000000009" y="259.85" as="sourcePoint" />
            <mxPoint x="123.05000000000001" y="210" as="targetPoint" />
          </mxGeometry>
        </mxCell>
        <mxCell id="T20NRvePa0JLVxdu-tDM-3" value="" style="edgeStyle=orthogonalEdgeStyle;rounded=0;orthogonalLoop=1;jettySize=auto;html=1;" parent="1" source="HySqlshbMLwH49JAa5QG-8" target="T20NRvePa0JLVxdu-tDM-1" edge="1">
          <mxGeometry relative="1" as="geometry" />
        </mxCell>
        <mxCell id="HySqlshbMLwH49JAa5QG-8" value="4" style="ellipse;shape=doubleEllipse;whiteSpace=wrap;html=1;aspect=fixed;strokeColor=#70FF45;fillColor=none;" parent="1" vertex="1">
          <mxGeometry x="93.50000000000004" y="650" width="66" height="66" as="geometry" />
        </mxCell>
        <mxCell id="HySqlshbMLwH49JAa5QG-9" value="" style="endArrow=classic;startArrow=classic;html=1;rounded=0;exitX=0.5;exitY=0;exitDx=0;exitDy=0;" parent="1" edge="1">
          <mxGeometry width="50" height="50" relative="1" as="geometry">
            <mxPoint x="126.50000000000004" y="646" as="sourcePoint" />
            <mxPoint x="126.50000000000004" y="586" as="targetPoint" />
          </mxGeometry>
        </mxCell>
        <mxCell id="HySqlshbMLwH49JAa5QG-10" value="Class&lt;div&gt;&lt;span style=&quot;background-color: initial;&quot;&gt;ArrayDataGenerator&lt;/span&gt;&lt;/div&gt;" style="shape=callout;whiteSpace=wrap;html=1;perimeter=calloutPerimeter;position2=0;base=20;size=30;position=0.14;" parent="1" vertex="1">
          <mxGeometry x="159.5" y="610" width="191.54" height="60" as="geometry" />
        </mxCell>
        <mxCell id="T20NRvePa0JLVxdu-tDM-1" value="5" style="ellipse;shape=doubleEllipse;whiteSpace=wrap;html=1;aspect=fixed;strokeColor=#CDA2BE;fillColor=none;" parent="1" vertex="1">
          <mxGeometry x="93.50000000000004" y="748" width="66" height="66" as="geometry" />
        </mxCell>
        <mxCell id="T20NRvePa0JLVxdu-tDM-7" value="Class&lt;div&gt;ArrayBenchmarks&lt;/div&gt;" style="shape=callout;whiteSpace=wrap;html=1;perimeter=calloutPerimeter;position2=0;base=20;size=30;position=0.14;" parent="1" vertex="1">
          <mxGeometry x="159.5" y="716" width="211.54" height="60" as="geometry" />
        </mxCell>
        <mxCell id="iyoycWqpR7W4cU49if0e-1" value="" style="shape=image;verticalLabelPosition=bottom;labelBackgroundColor=default;verticalAlign=top;aspect=fixed;imageAspect=0;image=data:image/png,iVBORw0KGgoAAAANSUhEUgAAAugAAAHiCAYAAAC6KTlrAAAAAXNSR0IArs4c6QAAAARnQU1BAACxjwv8YQUAAAAJcEhZcwAAEnQAABJ0Ad5mH3gAALLcSURBVHhe7f0JlBRlmu+P1/H09fqfn/ee9vib27dn7j3TznJm5syZdpq+tiPSAkqNXqflJ622LS4g+76U0yqjJYqUCAgli1IsFotQRVFVFAjFYsmqIPu+qBTKXiA7FBRVlD7/eN5Y8o2INzIjsrIqMzK/33M+SmZGRGZE5fO+n3zzjcgsQhAEQRAEQRAkZQJBRxAEQRAEQZAUCgQdQRAEQRAEQVIoEHQEQRAEQRAESaFA0BEEQRAEQRAkhQJBRxAEQRAEQZAUCgQdQRAEQRAEQVIoEHQEQRAEQRAESaFA0BEEQRAEQRAkhQJBRxAEQRAEQZAUSosJen19Pe3atcsXhw4dMtbSw7dVy6ng5zFz9epV5TIqampqjLX07N+/X7mcE15ODm9HtZwKfn1mcHzc4PhERz4+CIIgCIKkTxIq6EePHqWysjLKycmhBx980CZKLB58nx94fTnm9vwgixJLjGoZFbNmzTLW0tO5c2flck54OTm8HdVyKvj1mcHxcYPjEx35+HByc3Np+vTprg8oCIIgCIKEKwkRdBbzV155xSUQmzdvph9++IEaGxvpxIkTrse9GDp0qFjHhG+rllPBz2Out2PHDuUyKmbOnGl7ziCCJa/H21Etp4Jfn7kejo8bHJ/o8Ovj+vrxxx8F8mMDBgxwCTziDn8g40EFbr/4g5zfvxsAiYDfb/y+Y4qKikRfivgP6hckk+au3yYLOheH6oUzlZWVVHftEtVePEnHv9tH/Xo9q+A5F+PHvEm1l05Z8O1+vZ6301vN8SMHqPZyjcZp2rtzI/Xv/UIMuggWlc+la1fOWOT+51Dq30d7zKKrktz/zNGW/95icXkRDejzIg3oG4tutG/3Frp+9Zzg5LFD4j433WlAPzvvjx9F12vPW/Dtgf16+OLU8W+1v8lFwf6922lg/54e9LLxyaJS8bc0GZ77auTxAUxvF4M03nxjGN24ftliyeJy7f4+0RnI9KUD+3fTjbqrgppTx8R9bvq5mDRhPNXX1ercqKVJE8fT4EH9fXG65qS2znXBwQP7tPsG2BlsMtBG5dJPqKG+zmLEW8NpiHa/ziBPRox4kxoablhUVi6lIUMG+2AIffXVV3TzZoO2XgMdP35cWYNvv/22bdoOooe/ZeBOnRvYSZMm0caNG2nbtm10/Gi11uaclIi0Q260dsZEtDlurmntUHQibY6bSLvi5PqVs1q7EQ29XVETaTtU1NVeiILedngTaSOUXGcuW8htg84Vb4y2wJtaG3IbUH/jWgz0mndRz9TZkOs8gla/TqS6bmioV1JTc0q875ipU6dS165dqVevXvhwHSOoX2/UdWuiqlkZR706Qf3aaO76jVvQudPnzt8pBIP6PU/zC0fQN1s/pqO7tU8UGsd2F9OxPcx8iRI6treEju9dIFFKx/cxZRYn9pXTif3MQokKOnGggk4KFkU4uFjiEzrFfMUskVhKp75eSjVfVxos0/mGWS44/c0KnUPMSoNPdao/pTPVVQaf6RxmVgm+P7xa51tmjcFa+v47nbPfrTNYT2ePmHwuOHfkCzp31GSDwUY6d0zn/LEvDTbR+eMmmwUXjm+hCyeYrRLb6MLJbXTx5HaJHXTxFLPT4tKpXXSphtktsYcunTbZa3H5zD6J/TrfMwckDtLlswfpytmvJL6mK+eYbwRXzx3SOc9UGxzWuXCYai98a/CdzkXmiODaxaM6l5hjBsd1Lh+n65dPGJzUGkKTU4K6KzVUd9XktMEZreHSuVH7vcFZunHN5Jyg/tp5qr9ucsHgotaIXKQGwaUINy5LXKGbTD1zVaKWbjbUUmPDNYnr1HiTqbP44eYN+qGRqZdooB9+aKAff7gp4NtffL5eE/4RrprkBkOeupPp4WlEPXv2FJ36lQvH6KxWY9zO2NsouX2yt0vuNslsj9ztkLsNUrQ/RtujbHOc7Y3R1ni1Me72xWhbFG2Kuz2R2xKvNsTefrjaDkebEbWtsLURivbB0TbY2gRne+BsC6x2wKv+7bVv1b2y3p217q5zd307aztS1+561mv5h8ab4gP3wYMHxbd++HCtDurXT/2aNYz6DXP9xi3oTjnv9Pi/06cLx9PRXfM0KWd0OYegR4oPgu4oYAh6wgRdp5F+/LGRvvvuO/FJXq5PlvRM7+z5pFoedSssLBSjP2e0OvVuoyDo6OBbtoO3PmxrdcwdfVVVlZiqhpPB9aB+g9QvBD0d6jcuQXdOa8l9pTcd3j5Xk3MGgg5Bh6Cbha+jFX4LCvqPP/4gGoiPPvrIVqejR482Kjgzw/ME161bR5e+/0a0NXI7hQ7e2ZZ4tSHo4FV1nsgO3qzjmzdvitE47uQxko76DVa/EPR0qN/Ags5PlJubK8l5L0PMIegQdBMIuln4Olrht7CgmyxdutQm6atXrzYqObPCV7eZO3eu6NxV7RQ6eGdb4tWGoINX1XlzdPBcvzwaxyNx/A1YJgf1C0HPxPqNe4oLX0FiyKB+VL39Y6NgIOgQdBMIuln4OlrhJ0nQtf9YV7Fp27Yt9ejRw6jgzAmfUMZzVuuuXRbtDDp4CHpYOniGR+Jef/11+ou/+AsaPny48a7OnKB+IeiZWr9xCTpf0o2vHHFae8Md2QVBh6BLRSuAoJuFr6MVfhMFvVHj+vXrdKNOux1Q0L///gx9+OGH9Oyzz1JWVhb9wz/8g1HJmRH+apzPsuf2yqudQgfvbEu82hB08Ko6j9XB39Tqmuu3ru564A6e+fbbb+mRRx6hW265BfWL+oWgZ0j9xiXofL3mK+e/oyM7P4agS0UHQTeBoJuFr6MVfhME3ZRzPtmktpYvQcWS7l/Qtf9oy+qf5FnQmZ/+9Kd6Mad5+Lq0fMKs2V6hg/fbwXu1IejgVXUerYO/qWGvX62TD9DBm/X78ssv05133on6Rf1C0DOkfgMJOn+S5RPNeE5NTfVqCDoE3V20Agi6Wfg6WuHHKeg3Na5duyauzMJXTuJrrV65wteU1SQ9gKCb33r91V/9lSXpv/jFL/TCTuPwJdkKCwvpjFaD6OCDdPBebQg6eFWde3Xw3Lmr65c7ef8dPNcv/67IPffcg/pF/ULQM6R+Awm6fLLZ4e2zIegQdHfRCiDoZuHraIUfh6A3aP82G4dXX32VHn74YXriiSdo2rRpdOnSJaozRtK9GgbROBiCzvnyiyr63e9+R3fddRfddtttopF4/PHHxWPpGr4sG18vmdskdPBBOnivNgQdvKrOVR18g0b0+uU655G42B085/A3uyk7O9vq4FG/qF/v+oWgp0P9+hb08+fPW3L+5JNPasUyJ7igf/S7yItr3Zs2Jl3QZ9K4NpGDZaPNENrW0oI+v7PytfQvgaBnmqDLI+fcOHDNTZgwQXyKf+qpp8RVDS5cuCBG0r0aBtE4SILet2fkZ7DNr9qYdA6fPc8nmZntVewOfhKNae2uQaZ3IQQdHbzfDj4y8hatfsWcVp8d/PenDrk6eCadk8j6bTtiSgvW71jqazxvv7nJqF+VoE+lgcZrGlgWo34XdrUdO0H7EbQv0fW7pJf0HL1pxaUSGmzcHrIU9eu7urlIzM6diyYeQS/pKr+wu2nMyhQWdIO+cwMI+vqXqD2v98B/0PZAgl5K+W3dz20SGkHf/jY9xK+5/UjaB0GX0Ao/gKDf1ATd2TjMnj2bTp8+La6ryo3EH//4R9FInDunvTZrJN3eMIjGQRJ0viSqWcM///nPrfcXn7ySrunYsSNdvnw5IR08w508BB2C7qxze33bR95i1S9/E9bYWB+zg7/0/deidp3vSdRvKtZvWAV9BU1sZz9mFokW9D2jqYPtOVJF0FOnfn0L+q5du6zOnS/bFlzQc6m3eEF3U1ujgNq+NTllBL1d3ixRZKLQ5j5pHbysrCdpoU9B3z7KmF8UUNArepnPlUXtR5fZinHn6HtDI+j78u/X9wOCbhW+jlb4PgXdPFvc2Tjs379fXKqJP8Xv3buXRo4cSZ07d6YZM2bQ2bPaaxSSrjUOcQg6T3dJ1/C+8smx8XTwkfZpCo2936jR+/vSJgi6d9uR8YJeG1f9miNx8XTwqN9Y9fum4R4aL74FQdfwEvSlfY3jpPHQ+JVS/VbRpH4JFnRr9LyXJuaoX1VaTtDN6S2te9FG89/396ZNNkGPFFLvwrf0f3OHuH8E9THu7zPT+Pf9/WmzVlSl3fT7I7Si91Zxcc2IjI53y4sU2JzfG8s9QeVegs6FJkm6Por+KS3sYWzP4h7KX6cXXUVP52OabI+aL4rP/dhvKP8LswAnUH9zeUvO3cUoF+Ti3vbtDVhgFuUUGmDd9wlNkEblB5baO9glUiGKx8vNIv0oUsQLjX+3e4v2ap2tXLw699Ok7Xqnu7Sf87Es6pC/yirg/flt7I+3z6P9VhHPpUHG/YMWz9P//dAoOpCBgm6eLc6f0uXG4aWXXhKjSU8//TRNnDiRdu7cSXl5edSlSxcqLS0V69XfuGFrGETj4EPQmXQN72vTO/hS2jTibuNYdaQF+7zaI72D3zyylbGsQZsBtMXWwRfavrlrlzfY6sz7zuUOPtK59507lvrxvx/Ioe1aB+9uS7Q26HOzg8+32pL+xQukb+V+Q+9v0NqUEmkKXdthtCtqBw9Bj6eDb1r9mtPVgnXwTLomMfUre4V90G/Bi/bj2GeWKeh5Vo33nSO5hLhtF/Steb+2HhP0GOsQ9LmU/0Dk8X7zTEHP12ub7ysqkZYx/GD+M9Y6WW1foZ2SEzgdICvrXnp/k1m/sgdM1f/dLpf2uAS9Uhotb00Tt0b6fpbzaPVrDcaZiP7crF+5P19Hk9tHlhu8RK/f5QMj91kMLNFqVzWCvpk+7BBZLnvyOBpiLrMsveu3xQTdnN7S9s1JdGxFL2orXtjdNHalWtAtHIIeuZ87xGn0njmyZaMTlWqffLdYHeXvqczoIMsMoW+XN1MrriiC/s1oq8Da5X2sFdxcGi8VaYSnqCKqoM+3FWeEZ6iCBd0qQqMTjSHo7sLUGbDALuhuXqAlRgfrlHOTgeV2QbcQgr7S46uvF2lpDEGv7O9+TKcHLXMIukWGCjp/EudLOfHP9M+ZM4f27dsnGofnnntO3Ddu3Dh65plnRCPB1wbm+/iqSvw1W309BN0Z3teEjsCJEXSv9miRYsDAxGyD7HLuxCnoFkLQ7R19hKepwiHofmg/pgKCnmBBb3L9QtBtaUr92tFc41P7t/JOOTfpM9su6G5+T+WGoJd3VzzuEHQ3f9CcwS7ofmg/utxwgoX0vnJK7HO02CHoFipBL3vBeJzlXKvd8i6R29u861fV1+t0p0qHoLvpScsDCbpdzp0kWtBTrX5bSNAj01vGrOAzrOVO8EO1oIuO0CwmqUO8v58m7F5TXCJF1Wf2J3RKu22NRM3hztG83YrGreYCCyLoziku70U+/c7Tv7byN8Xl/cgo1/z1tGP0b/R1NGFfbFzFZbE05UXQdhjtZEHfOEyf4y4+Leud6q6x9+nL9J5iF/Q+fFvrXEufN7ZzH03crHWwm9/Q54lzEW7RO9m941rry/T9yC7o7d7UxDzS2doLtjDyKblC73SVU1x2jLTmmQ1abHTAO/Os+zq8v9Yu6O1H0f4Mn4POn8Z5DpzcOJSXl4v7T5w4QePHjxc/OjRp0iRxm+9vqOc5cPaGQTQOEPQEdfA6+gicR3v0WX9qZ9yvd/KL6dSqAdZ97UZ+pN0eZN3uO8f4inzuE/q2+D6noD8wVBNzr6/I5RE4h6D3nCC+oYu0L3wuC3fu5ZHOvfcHEPQECzrXdTz1G+ncIehymqd+Naeo6msMEv6Kxlbp9bv57V/py3XLswu6+Q289e274Q+rI7XM/qBPcZlN4/Mcgt7jPb1+5z5lrH8P5a93CHrPfOEHO96V6lXzA9v5ab0mG4LunOLyoTRi7hD0trm0WznFZXpktHzcclG7lgdkdaWlXvW7fYThD9zvu/t47s9tgj5grl6/i3sa236APtht1K9yiotD0Pe9Z217SKVRv8v6GuslXtBTrX5bRtCtq7f8jkqMyyBtfNP4yvj+PtI0F/tXUZFPu5EOsc9M+xx0q6gc6IL+iTViLorMLLA2g2ir+AQcTNC3Ob/KMogl6NtHRYpORhSgYgTdU9BL9F+CVNL2Ndptm+Jidq5SUfI0l1LzU7MCFnLbFBd7Z7t3vONrLYOogl7RzbhP/grsG1pmjqqLApa/EsvwOej1kcaBf3dAbhz40z3PNT9+/LhoJJ5//nmaPHmyuN2UOehMuob3NTEdPE9tMdskj/ZoVid92TYDaLM0h1XZBokpdoagfzPLaofcU1zsc9CtNsaBU9D7F3PnLrcvnWmx8a2c1b5A0K3aT1QHb16azat+GVX98gicqF8Iui1NqV95ilpktJzrWHOKmR2tY+dC1K88xcWcgy4P+Gm1O8f8YK3VsukN0eagr8sxBtjcgq7X71o6W2zWq/EN+5HPI+eoSYK+c8y9xnJ2nII+YIFcvxEXsGg3XOvzjfr1M4Je8aK+TPu3beeZWd+S95+r1a/cn5v1O88S78FLjPr1I+hL+xjL9KUVVv1upSnGqHqiBT3V6rdFBL2ki/sFRZCnuQQU9FmPW9tp9/Z0xQi6hjWC9Xvqa3SUkTlk3oIekfFf0/i1WsFZn36zqP07c7WC8zmCXvR0ZL13S1wj6Gc3vGwULX+FZZ+DzieIinUNQd9lFeWztFh0qM5ONbag73nP/JT8Ai1RdrIegi5ddumh/E+1YvU3gm7NPYegiwYglqBzQ2DOgeNP6QsXLhT33bih/zDCzYYbQsb5F/by8/OpR48emIMeJbyviejg7ddRVrdH1mBBFEG3pt1ZgwQs6O9KQh5F0OU2aFSxooOHoCdb0D3rt06r75vXxW8b8I+cqOsXc9CdSVj9FppC/isa+2k5bRphDuw9TgusAT/zm3jnHHS1oG/NM2t5MG1tSUGXBur0aWreI+hegv5QO9MDeHqLUb9b37RGx73moEf6+JYR9K8mtdOX6TCOvrLqt7xF5qCnQv22gKC/Hpm24kXXN41CCiboka+kRuqFJX2dbAn6V1IHKfg9lQW5ikubobRNKzhL2HuMdRRbdEG37jO+wjr7RUTI9a+w5JO5tPtKvAVdHkFvP1YrTKNT3TX2OZqwyZ+gyyPoD42rtDrZveO66PPQPATdGj3vV6gXrO2rLm9BjzXFZdBi7oQh6CZ116+JOXDz58+XGgeW88hPC5uSfuTIEbHc+vXrxSf4hoZ6W8MgGgcIeosJeqwpLmKanTWCrnfysaa4yIK+/R2zLRmvT3H5/D8ibRAE3d4WJEnQ667XKuqXazvyA2Q3G+pETdvrlzt/81JtEHQzialf6SpMihH0tiOmWYK++e1OxkUmfIyg+5zikmhBt7zArN+N/2m1A34FfWCZdIKoGEXn+l1hO8/MfhWXmTSIL7MYY4rLoMVcv80xgq7dboEpLqr6rb+h1W2S6td3ZfOnCpb0HTt20Ndff20VTExBt6a3mPPPTUqk66I/RguaIugKZEGXO8WsbqOUl1lUY15iURJ0Baagn5n3B9v9fJKo11fSjC7ozMTI3FEVpqAfq/A4OeQ+/4J+Uj5zW8Y4USSWoCswBf2yOZ3FoEOsk0R5VF10whD0CFqHrjUI3DCwdAs5F79WFhF0Iek367Xl6qzl9MbB3jCIxgGC3nKCrnXwnieJthloXMkl2EmiSkFXAEF3tAVJEnSuaxbySP1G6trs4Lme+YfI+EO2vhx37piDrkpT6ldF5DrosrTL/Mq/oGsO4eck0WYTdAX+BV2r3y3m+Wg8WLdCr99tkVF0F8Z10D1PEhXfkidY0Fv4JNFUq9/Ald3Y2GgrmOiCPpFGm8XCl1e05FwX9GOFj1kvsHdhcEE/abuKCxeWYooLC/qqgdIolvo66E7a5c3Wisz8uoqRr+KiFdg69xQXRr6ai/sqLnz5JMcUF6MIGdfcc8GztFiT82iXWRQniPqc4mJ2sK4rufSdYXSyXnPQ5au48OUV3VNcGLl4TUFXSnr/uVInDEGXBZ0bgvr6OvGVmdkgOAWdr7naqMEnh3p9cheNgyToe7d/RoMHD6Y77riDbr31VtvfI13T0oKulHTzJDMBtz+jrM6bp9CNW+tziovtKi5aG/Q5prikoqAzPOrGH7SddS3XM/+4CZ9c1qDh55cIIehNE3TVL4m6ruTC38b7nOKiO8Qyl6Tr56w1n6Dbr+JyL72/MfgUFyHoWv3Kl04WV3Ez6td9SWVN4vOrrPp1SXr/OVL9JlLQuXZLrSktWVntaIr2t2uuKS6pVr/NLOjO4nEIegv91H9k3iePYil+aEDMA2Xkk0S5o5QFPfYPFTHiq2dxhQVGdRUX5w8R6EXInDOu4mJOcdGxX2bR3qE6O1W5Y1V1ru4OVtnJCsyONtLZ2jtcj05XgJ/6NwtfRyv8gILODYGJl6DbGwV3wyAaB0nQuYHIzc11NQ5MuiZ4B69qn5yC7myT7IIut0PWIIFN0O3tT6SD52/sHG0OfqjIahvCJOju2nZ38N61bK9jCHpq129q/tCYWcPpV78rB5nv+760Ms3r13dlxz3FRVk8zgJqHkG3zz3nT70eBQZBtxepwCzUSLHaC9ajaAUQdLPwdbTCh6AnJanXwXtPcXF/awdBb44OHoIenkDQM13Qvae4ZE/elvb167uym3SZxRQQdF3OPQoMgm4vUoFZqJFitResR9EKIOhm4etohQ9BT0pSr4NXCTpPc0m1Dt6rDQlbBw9BD3NSr34h6C1bvypB52kumVG/aS3o7uLyKDAIur1IBWahRorVXrAeRSuAoJuFr6MVfgoIOk4SRQfvv4P3akPC1sFD0MMc1G+mC3pm1y8EHYIOQYegi8fTMbyv6OAh6JnawYc9qF8IOgTdRyDoEHR7wXoUrQCCbha+jlb4EPSkhPcVHTwEPVM7+LAH9QtBh6D7CAQdgm4vWI+iFUDQzcLX0Qofgp6U8L6ig4egZ2oHH/agfiHoEHQfgaBD0O0F61G0Agi6Wfg6WuFD0JMS3ld08BD0TO3gwx7ULwQdgu4jEHQIur1gPYpWAEE3C19HK3wIelLC+4oOHoKeqR182IP6haBD0H0Egg5BtxesR9EKIOhm4etohQ9BT0p4X9HBQ9AztYMPe1C/EHQIuo+knqCPFD/F22eWUVSOwopP0EdT36wnaCEEXcMs1Eix2gvWo2gFEHSz8HW0woegJyW8r4nt4N/S2p2OtACCrm470MF71HZyOviwB/ULQYeg+0iTBH1FL2orvZi2b06yCmhB1yzqXehP0Be8qAn5TLmgpKJyFFZ0QR+libh8gJ6gcgh6pEgFZqFGitVesB5FK4Cgm4WvoxU+BD0p4X2Nr4N/g3pLxyeLO3UIuqv9QAcPQW/OoH4h6BB0Hzl06BDl5OQIOf/ggw+sgokp6Ct6anL+OyqRiqfkzV60MVmCPuf32gFpReNWSwW2ejD1zZsFQTeLVGAWaqRY7QXrUbQCCLpZ+Dpa4UPQk5K4OviPfqcdk7tpzEppBO7TPtR7xJQM6uC92hB08Ko6h6A3T1C/EHQIeoA0NjbaCsaXoLdmIY8Ius5kGnO//CIfowVaIW0acbd0H3/q5UKaQmNtyz5OC8QUl8ep1CyqA9PpPekntNuNnKEorjxNwFnOHQVmFZld0Lfl/Vp6zqdooVRwFT0iz5XVc5woOqaip3x/vq34IOiOAoagt6igT5v8NnXq1IlatWpFd955Z+R9qpGuCd7B88ib1rmv8PcV+aYRv5KOYye9PTI699JukeOb1S3PaIOWUll36f7u76ZoB+/VhqCDV9U5BL15gvqFoEPQAySwoO+eSGNaay+ia65WPLKgq0bQNRF/sQ9tMkbPecS8rfapVz2CLgu6JueawLOU68WVR++pBJ1Hz9sMoi3OT8BKQZ9N43sMoW1GsS3UhLxd3ly94OY+RVkP5NB2Ljip6M7M+4N2/3/QdoygQ9CNwtfRCj8FBJ0biNzc3EANRNgTuIPn0TcxoOCngy/Q2qt+tMkYgeMOvd3b0/U2aHYnra0ZQFs82qCtcvsDQVe3D+jg9RqGoKN+IegZWb8tIOh68ZRoIi5eTNc3ogi6XEgahR0p68URsQX9s/7U7v7+tNn45KujFZWquLqNcn9FpRR0R7GxlPcYqxfcuhxqn/UUVTgFff1L2v1/oAoIOgTdKHwdrfAh6ElJXB28aKP8jcDpGF+Rz9I69W4j9fZn1QBql9WJypxt0KpB2v2/p/KU7+C92hB08Ko6h6A3T1C/EHQIuo/EPQddLh5NzIWoS59wXYLOUi6/eD+CLhdWIgV97pP212IKOhcbC7u4XxN1U9C58HgUXdyvibqj+CDojgKGoEPQmznN3sHPfNx+LOV2iEfhxP1aR2+2QTyHldshcf8TWkefqh28VxuCDl5V5xD05gnqF4IOQfeRxF1mcRKNaR2ZI2YTdJbz+yNTXHyPoLOg+xlBDzIHneW8TWSKi20EXS44c7qLKehceEyRMd0Fgu5dwBD0FhV0zEH30cEHmcPKnfv9ka/IVQMFog2ao93fZiBtMTt4c4BgzhPa/YNpKwRd3T6gg9drGIKO+oWgZ2T9Nr+ga59oe39kFo8m6OKSi3xVl4igt33rQ1FIm966WxPyN41C0uegOwW97YgCt6CLf2vyPtssLI856BpbRrbSDkjsq7iIE0R7jLaKjeegKwWdp7uoBP3z/9Duh6BHLWAIeosKOq7i4qeDn08b3+QT1bVOPsZVIMQJZqJ90jt4cVKZqoPnr8tVHfzqQdr9EHR08BB0r6B+IegQdB+JfwR9IomTRK0Xw59uI3PQj6/sY1wjna/iYr9aS+8X7SPoJ6r6GcuqruKiS7q5bp/ZWmEpBN3+FZWBVWSOk0Slq8L07SGNoFvTW5h7KH+9XnTiJFH5/s/txQdBdxQwBB2C3szhfQ3awQs+esx2fCLf7MlfkRfY2qs+3aQROOvrcaYVjVtltD+2tocHCrjdgaCjg4egq4L6haBD0H0k9X5JlK9bypiCriF98o3+Q0VeU1zwU/8RzEKNFKu9YD2KVgBBNwtfRyt8CHpSwvsaVwfvOYc1U34q3KsNQQevqnMIevME9QtBh6D7CAQdgm4vWI+iFUDQzcLX0Qofgp6U8L6ig4egZ2oHH/agfiHoEHQfgaBD0O0F61G0Agi6Wfg6WuFD0JMS3ld08BD0TO3gwx7ULwQdgu4jEHQIur1gPYpWAEE3C19HK3wIelLC+4oOHoKeqR182IP6haBD0H0Egg5BtxesR9EKIOhm4etohQ9BT0p4X9HBQ9AztYMPe1C/EHQIuo9A0CHo9oL1KFoBBN0sfB2t8CHoSQnvKzp4CHqmdvBhD+oXgg5B9xEIOgTdXrAeRSuAoJuFr6MVPgQ9KeF9RQcPQc/UDj7sQf1C0CHoAdLY2GgrGAh6pOgg6CYQdLPwdbTCh6AnJejgIegQ9PAG9QtBh6AHCAQdgh61aAUQdLPwdbTCTwFB37v9Mxo8eDDdcccddOutt/pqIMIedPAQdAh6eIP6haBD0AMEgg5Bj1q0Agi6Wfg6WuGngKBzA5GbmxuogQh70MFD0CHo4U1T6/fI7vn05coPadr7/0FfLJ9MR/YsgKCjfkNTv74r++rVq2Ie+o4dO+jrr7+2CgaCHik6CLoJBN0sfB2t8CHoSQkEHYIOQQ9vmlq/3+4oooVz3qbfPXwfvf4fL9D6yklaPWs1HMr6nUz9szrT4hYR9EIaaLy3BlUU0iDxf9Rvygo6ThKFoNs7XAi6vehTX9AxxQWCDkHPrA4+7Glq/bKgz/9oOP36X/6Rnuz0f2nS2D/RhuUf0NE9pYr6nU7v3a8dzzYDaLOyfvOor3as2+UVJql+VYL+AQ2wvReeoyUJEPS94++nh8avRP0muX4h6BB0CHqGCDpOEoWgQ9Azq4MPe4LW7/ql79OaxeN1PhlPVQvfo/y8AXR/6/9Db789gt4b/RZNePcl2lQ1VVG/hqBntaL3Vrnrd8vIVtSujUaqCHrJs9prvZfe3yjV76bXaMDYxVrdQtAh6BB0W9FB0E0g6Gbh62iFD0FPSnhfIegQ9Ezt4MOeoPX7yqA/Ut9uHTX+P0Hvro/R4//+W2p9329o8eLFtGzZUnrz9Zfow/deUtQvC/qv6L2RnSirW56jfnn0/Pc0jiVdEvSteb+W/g5P0kKrfsdqyz9FC9cNpfbm4z3GGfU7nvpl/YEqpPqt6JlF/Yr1+t3x7m+kbT5DFUpBn0wDhJx71S8zxT663meqVL/TaWDWC7R0y3B6yHy870eidpf2ldbJepGWnuEpLvx/s35niSkv+uPdqLKiG2X1n4P6bYb6haBD0CHoEHTxeDqG9xWCDkHP1A4+7Alav6Pf7EXDX35Bo4vg9Zeep66d/y+1aX0vlZSU0IIFxfTW60NpTsHrivo1BH1VHvUxRtHN+hWj5yM/0v9vCfpMGtd9MG016ndhd57+MtuoXRZ07W/zwFDaLmr3PU3KNQmfx/UbTdAXUH7Pl2mHUb8VvbKo/ehSo34lQefR87bDaJdn/S6mCW2zaMACs36X0sR2WfTQe5VG/bKga6+v3XDaK+r3I3F74EK9fu0j6LKgV9Gk9jwf3azfObqsQ9CbpX4h6BB0CDoEXTyejuF9haBD0DO1gw97gtbvns9n0M510zSm087102nbqqk0/f0/0X33/ooGDexP74x4hWZOfo32bZytqF9T0BfTZk3EeRRdr98ZNK5NKxq3ypjm4jXFZe6TlNVjtFG7LOi/pvHrIvVb0UOT7VFztfqNPoJuq9/5z1BWr4lG/ToEvfcH3vW74DlN4F+n3XL9bs6lh9q9QXssQW9NE7dE6pdHzh8av0LUr6egV7xIWe3fpn1y/WIEHYIeKSa5oCDo9k4Vgg5BjzQMonGAoEPQIeiK+s+MDj7saWr98kmixTPeoP/zq3+kp594hGZPydUkfqb2mFbHrvqNCPrJgzyK3onKuH7n6FNeuH5dgj7nCfvfwiboT9FCqX63v3OPP0Ev1qRc3ma8gt5niqN+p4ppLUssQX+Blkr1u3dca3+C3m+WvX4h6BD0SDHJBQVBt3eqEHQIeqRhEI0DBB2CDkFX1H9mdPBhT1Pr97udxVQ5/13q8swj9MHYobRz/UdR6lcWdH0Uvd3IPGv0nOvXJugs520iU1zcI+hxCDrL+QORKS6eI+ix5qD7GkFPjKDvz28DQYegm8UkFxQE3d6pQtAh6JGGQTQOEHQIOgRdUf+Z0cGHPU2t36O7S2iXJuWfFL1Duz4vjFG/dkE/uWoAtePj22YAbTHqVxb0rXmtKKv7u1b98hx0f4JeRPkPaEJeZNRv0dPib8iCLk4Q7fm+Vb88B10t6Btp15h7tfW8ruKinyAafQ56HIL+/Uwx5xxz0FumfiHoEHQIOgRdPJ6O4X2FoEPQM7WDD3sSUb/H9iyg73bPF9c+j16/DkHXKOuWRX3nROrXdZJom8jfoG93vyPoWv3O+0Pk79cz336SqCbv5mP9e3mNoBv1Ky61GFk+q+1rtNtyAftVXB56b6lUv/EKusb2tyNXfsFVXJq1fiHoEHQIOgRdPJ6O4X2FoEPQM7WDD3tQv/HWr1nDzV+/PMWlQ/5q1G8z1K/vyq6pqaFZs2bRzJkzadmyZVbBQNAjRQdBN4Ggm4WvoxU+BD0pQQcPQYeghzeo3xQX9B0jqUNWG5q8A/XbHPUbuLIbGxttBQNBjxQdBN0Egm4Wvo5W+Ckg6MsXz6IuXbrQXXfdRbfffruvBiLsQQcPQYeghzeo31QTdH0OeuS9x3KO+oWgW8UkFxQEXV2UXp2ru0CVRSowCzVSrPaC9eh0Iei2wtfRCj8FBJ0biNzc3EANRNiDDh6CDkEPb1C/qSboqN+UF/T6+no6cXCZzlfL6ORXyyVW0MmvmZUWp5hvmE8lqgw+s3OIWWVRc2g11VQza+wcXkOnBWsl1kms1wpB41snn9OZ75gvDDboHInw/ZGNEl8abNI5uonOWmzWOcZsEZw7tlXnuMw2ie0GO+jcCTvnT+yk8ydNdhnspvOndC5Y7JHYK7h4ah9drHGyny6eZg5IHKSLZ+xcOvOVwdcS32hvKDeXzx6SqNY5xxx2ceXctxLf0ZXzzBE7F5ijBsd0Lh6jqxePKzghqL14UucSc8rO5VNacdcYnKZrV0zOKPje4Cxdu6pz/eq5CLUm5wV1tReo7prJRRs3BJciXL8scUWnzslVunHjKtXfqJW45qLhxnVqqGfqJG5QQ8MNrRGRqdc6M6ZB4qbFpbPfZaSgy+2VVzvlbqMc7ZPULinbJFtbFGmH3G2Qov1xtTtSm+Nsb4y2xruNUbcvqjbF3Z6o2hJnGxKj7fBsL9RtRdT2wdE2RG0PnG2B1Q541b+99u0176x3Z62r6jxWbUerZ2ctO+s4Ur8QdAg6BB2C7op8kmjv3r3pwIEDAIAQce7cuYwU9MuXLyuPBwBhgus3aAcf9vD+QtAh6BD0GJEFfciQIUbBAADCwty5c6lTp07UqlUruvPOO301EGEPt1cNDQ3K4wFAmOD3cdAOPuzh/YWgQ9Ah6DECQQcg3IwaNcqq4Uy6igsEHaQDEHQIOgQdgq4MBB2AcANBByC8QNAh6BB0CLoyEHQAwg0EHYDwAkGHoEPQIejKQNABCDcQdADCCwQdgg5Bh6ArA0EHINxA0AEILxB0CDoEHYKuDAQdgHADQQcgvEDQIegQdAi6MhB0AMINBB2A8AJBh6BD0CHoyqSSoM9/gXfqlzS6Uv0442eZ2OTT6NZZ1PaNfMVjTYdfY3NtGwAnEPTkgPYKJAIIOgQdgg5BV+bQoUOUk5NDQ4cOpcmTJ9sajpZG78w0XhimfPxIZXdqK3Y8YIc3/VHKat2dNlj3ocMD6QMEPTmgvQKJAIIOQYegQ9CjprGxMSU6vLYvPKp1ao/SfMXjG974pdZx/VJ7HB0eACYQ9OSA9gokAgg6BB2CDkGPmkQJ+jdbCpX3+0HvKIZ5dEbDqBd3dNN5VMrd4fG6kQMT6TDt92uI0a5Ihyc/ruqkRCcrra9axvYc2vb1/ZCW4w5X2kav6fb1AWgKXLe5ubm295hJuiZRgo72Cu1VsoGgQ9Ah6BD0qEmEoO9Y8yG1bXMPdX++o/LxWFgdhWsEScO8T3xtbO/wRIcjfc2sj1xJ63uMSPEBtDof0SkptmsbHeNO196ZiWWczyUv43y92u3R6PBAAoGgxwfaKw20V0kHgg5Bh6BD0JWpqamhWbNm0cyZM6mystLWcATB7Ozuuusu6vTYg8plYmF1eEbHEhm50TsocVvRgbi/YjZGr8xlvDo8qZOUR6nEbUXHKhAdmvF8HstE9sNcxvn6AEgcEPTgoL2KgPYquUDQIegQdAi6Mom4iovc2SWmwzNGlcwOSe40nJ2MMQKkwjbapOjwrE5JdZ/cscnIz++xjK3DMztX7fXYnw+AxLBu3Trq0qWLqL3bb7/dev8z6Rpur+IVdLRX9mXQXiWXTBX02tpaOlK924M9gqPMYRV7o7Avwrdqjn27PwYH6Nh3Xhz05Ph3X9HxI9H4Ogrf0PGj3pw4eigK1XTiWDQOR+c4863FSRffeXPiSAyO2jhlcpI5FoPjak4xJ2zUKDnppkbmVBRqBKdlTsucFlw4dzpw/baYoDs7u0R1ePKoku1+ZYen6JhkktrhmeijbPxHi4y0AdB0cJKof9Beob1KNTJV0K9fv06nj2wGINTwB82g9dsigq7q7BLX4Zm3u9u//nV2eM7bKuLp8Ly2K29LuYxq2xFsI20AJAAIuj/QXqG9SkUyVdDj+YANQKoRT/22iKA/0fFBV2eXyA5P71C0HZU7CEUnw+u5OrQXpNuukSMfHZ6Ge7v6qFJkRElfR15GdGjaMtZ2tOeWR6DENtHhgQQCQfcH2iu0V6kIBB2A8JKygr6gMJfeerWbi2UlecrlY+Hq8IwOxfYVa5RRIPnA2NaRHxedjbtzU99ndFCe22Xsz83r2/bD7LRNbB0oAE0Hgu4PtFeM/bnRXiUfCDoA4SVlBR0AkHwg6ACEFwg6AOEFgg4A8ASCDkB4gaADEF4g6AAATyDoAIQXCDoA4QWCDgDwBIIOQHiBoAMQXiDoAABPIOgAhBcIOgDhpVkF/erVq0LSd+zYQV999ZXyBQAAUhcIOgDhBYKeHPQrHjmvsGTHzzKxUV9xKVG4ryYFWpJmFXQzjY2N6PAACCGHDx+mwYMH0x133EG33nqrrwYi7IGgg3QBgp4crEuSel3n37rkaEBBl38cTABBT2cg6AAAT7huc3NzAzUQYQ8EHaQL8XTwYU+i6vebLYXK+/0gxPaFRzUJl38ULIL4Ea/Wv1T8jkEMIOgZRTz167uyMcUFgHADQQcgvEDQ42PHmg+pbZt7qPvzHZWPx0IX22Ee8sy/wquJ+XTVD41Jo++CiODb79dw/NCY/LhKqs1f9o22jO05tO3r+yEtJ36JOLKM+8fKQCJpVkHHSaIAhBsIOgDhBYIeHFPO77rrLur02IPKZWJhia1rxFvDvE/xS8BCkKVpMfpIu7S+xwg6/z0tWRYSrdiubTSfPyTY5Vss43wueRnn69Vuj4agNysQdACAJzhJFIDwAkEPhiznCRF0Q4QjI826UIvbCuF1T4kxRtvNZbwE3TbX3THtRfFBQCAE3Hg+j2Ui+2Euo56yA5qHFhV0fjIAQHjIZEEHIB3g97Nct5lSvyrhiYZTzhMj6MYouCnQsuQ6pdgYsVZhGx1XCLol0ar7ZBGXkZ/fYxmboJsfBrTXY38+0FzEU78QdAAyBAg6AOGG389y3WZK/aqExwuVnCdK0OVRcPeItFPQY4xQJ1XQTfRvBfg9hDnozUs89QtBByBDgKADEG74/SzXbabUr0p4vHii44MuOU+coJu3u9unqzgF3XlbRTyC7rVdeVvKZVTbjmD7ZgA0C/HUb6gF/cuNm+itnvMp99kSWv3ZWuUyAAAdCHpy4KteTXyriLZs3qp8HAC/8PtZrttMqV+V8HixoDCX3nq1m4tlJXnK5WPhGnkWAqwdd1loFVLM67kE/AXptmuk24ega7i3q54bLy9jXvXF2o723PKIudgmBL1Ziad+Qynoe3bvoXHDiqn/fWU0YXgRfTCqmAb9tpzeHVJEmzdvUa4DQKYDQW95pr9fQoN/u4gG3buQ+rdeLESdL1mrWhaAWPD7Wa7bTKlflfC0FC5BNwTYNiUkyqi1/HeyTyORHhdy7JZx9X2GUHtul7E/N69v2w/zQ4aJTfhBcxBP/YZK0I8ePUZTxuhiPualIjFqvn//fsHaNesp/40iGnDvIno/dx4dOnRIuQ0AMhUIesuxZvU6eqXjAiHm+blFWvu5W7Rdg9oupJceLqNPKpYp1wMgGvx+lus2U+pXJTwAhIl46jcUgn7x4kWaM7WUBv22jIZ3K6Kli1dYYu6kauVqyuuvS/y0/BI6ffq0cpuBqMpxH9TsAqpWLZs2VFEO72dOleIxEEYg6M3PqVOnaOzLxTTwvnIx9a5q5Spb+7Thi400oo/++Mh+xVRdfVi5nXioyuG/ZTYVVKsfZ/wsY6eaCrK1ddK+vQsH/H6W6zZT6lclPACEiXjqNxSCztLNI+OvdCyJKucmK5d/Rq89UyzW4eVV2/SL3qHlUJXtfu60nPelIPzBIt6OVaybTdmufQdhBYLe/EwcoX+Lx4MEqrbJhKfm8XKjhhQptxMPelul4fWhurpAq2deJoigg1SC389y3Zqka8z6VQkPAGEinvr1Xdk8ZSQnJ4eGDh1KkydPtjUazQ1L9tTx80WnxiPjw7sUU8m8RbRnz15bp1de8onoGLnjG//aPJoytrhJgl5dkB3ukaMmCDp39jlV+uhZTpV6GRAuIOjND39rl/usPkI+7A8LaNnSlbY2as2qdfSm1n6JAYfHy0QbpdpOPHDNZmtttNeHar094w/dEPSwErSDD3vM+lUJDwBhIp76DVzZjY2NtgajJWDJnj6xhGpqamj37t00VesEhzyodYCdimn21FKaW1hOuZ31E0X5hNGtW7eJZXmd+AVdn+LhV06t0SuB3EHqkptdUG1bhm8H30aV/nWz2cFaI2IG0siZfVvRHlN15rzv+v3qDymq1xPna3SO9onl1YIBmsbcuXOpU6dO1KpVK7rzzjsjfxONdE1LC3rh5AVUUbpUfOvH7ROL+rtDi8Sc9HGvzhNz0v/0cBktmLdILMfLq7YTD1xPZv252xeuaa0mq7i+HIIepUbl9st5W25HVO0ZSDwQdADCSTz1GzpBN6nWhHDujHL602OllKN1eIUfltKBAwdtyzRJ0AOIolM07VKrd2j8R7BkX8xpt3eS/rZhX6e6IEe6rfhAoRhBj/480n3mMuI4ODp05euJ4zWK42A/xrbnBgknNzdXO+b8d7KTrkmWoJttELdRgx8sEyPmfDWXD0YX07Fjx8RjzSPomiirvjkz71PUc/R2JCLk8m1+z0Rrz0DzAEEHIJzEU7+hFXSTeYXlAtVjTRJ0hTzq95kH1eiQlCJvjFaJDsvo0GzSqd9ndXBxbcON1UGb9zk76pjPwzhem3HbPkLmvU/BXqNaBiK3QaKBoDcvTkFneCrem92LxO82yPfzctu2bad9+/ZR79696dFHH6UJEybQ9evXlduORaS2otSV8gO3HXuNOuvfu/ZRt80PBB2AcBJP/fqu7GTPQU8JQbeQpNYm7Xb0DsvZwSnui2sbOtyZysvblnEKeszn0VBIvHuU3cc+SUR7jeIxs7N3vl6QcCDozYtK0A8ePCguC8v/l+//Yv0GIeMdOnSgQYMG0bx586hNmzY0bdo05bZjIYu1+1swo6Y9BN27Rp11Haz2QWKBoAMQTuKpX9+VncyruCRF0F2jUM7HZEH3EnnGR4cW1zb01yePZMkdtEAp6NGex+jYpTdOBPcoe9R9Evh4jSwMxmt0PQYSCuagNz8s6MWzF9raIS9BP378uDin5q//+q/pxIkTYv0pU6ZQv379XNv1g71+Im2U7X6XoMeqUWdd+6190BwE7eDDHrN+VcIDQJiIp34h6FHgjko9oisJuseIVAQfHVo821DItktwnYLu83lUH0rEsbA6cR/7xPh5jWI9fk3SMZWWB4kDV3Fpftat/ZzGvlwkruayc+cu0Q45BZ3/v37dF1RXV0clJSVC0Ddu3CjIy8uj5557jo4eParcfjSctaXfLrDXlbMNiFmjzrr2WfugWeD3s1y3mVK/KuEBIEzEU7+hEXS+HNmRI0dsAs54CTqPTjX1MovW6JJL0u0yKeTVtozWYeWYt/11aIG3oexoHct4dL6ez6NY3sL2mL998vUaNXjUPluTdPdxBokEgt4y8EmgswpKhajzaPr2bduFoPNc9IULltC4V4vFyHlpaamQcxXt2rVTbjsadrHWEPWn/X2l0XFXTcasUWdd+6x90Czw+1muW5N0jVm/Vy+eACDUxFO/oRB0vjoLXwN9/GtFVFq8WMyHN0XcKegs8YvLKynfWH7Xzl3KbQZBSK3zoMqdntFByY9HRqH9dmhBt+GYjqK9HlcHLW/TMfptradhPo/YT9t+yegfVvRlvV9/8NeoYYiEauQeJA4IesuyffsOcdUWFnUWdG6P+IeM+NdE+fEZM2ZQjx49xGCCzMqVK4WkO7cXC6/6t9WVU8g1oteos6791z5IPPx+luvWJF2TzPoFINEErd9QCDpTW1srfuRj8jtFosNjKeevkE1B5x8B4WsL82PcCfJ1iC9cuKDcFkgxhDR4jNyDhAFBb3l4Ggv/sjG3W0sWLRftmPlYogUdpD/8fpbrFvULQHgIWr+hEXSZzZu30IxJJdaoVH6uLu1T3psvrozAnaJqPZCK6KNv3iP3IFFA0FMLCDoICr+f5bpF/bYcfJnUt3rOp9xnS2j1Z2uVywAQjaD1G0pBN+GpL/NmltPHM8oTMpUFtCxiSg2/QSHnLQIEPbVgQX/66aeFkMtMnz4dgg6U8PtZrlvUb/OzZ/ceGjesmPrfVyam2vKvlfOvlr87pEgMFqrWAUBF0PoNtaADAPwDQU8tli1bJkRcBV8OU7UOyGz4/SzXLeq3+Th69BhNGaOLOX9bz6PmPJWWWbtmPeW/USR+Ifj93HnivDjVNgCQCVq/EHQAMgQIOgDhht/Pct2ifhPPxYsXac7UUhr02zIa3q1IXAnOFHMnfK5bXn9d4vnSqqdPn1Zu0w+q3yBp6ROvo18oomXx9VqMC0wk85gFIWj9QtAByBAg6ACEG34/y3WL+k08LN08Mv5KR/13VFRiLsMngb/2TLFYpymXdRaCLl9qOAlXNwuToOsfaOxXpBJXm0vhKbNB69d3ZZ8/f1781H/Hjh3Fk/APbKheAAAg9di2bZuoW4Z/SfSOO+7w1UCEPZ07dxYnXqqOCQBhI2gHH/bw/qqOQ3PCkj11/Hwx35xHxod3KaaSeYvE7xjIYl5e8okYPWcxH//avCb/7opL0JNw+dLQCHq032xJYYLWr+/Kvnr1qtXBM1OnTlW+AABAasKX+Hv++eeFnP/kJz/x1UCEPQMGDBA/CqQ6HgCECZ4+8W//9m+2uk33+k2WoJu/XM5tx9T8EhryYDkN61RMs6eW0tzCcsrtrJ8oyieMbt26TSzb1F8u9xJ05wi6fSqMfQTZlFrbMirJNX6QzMT8EOBnfXMZ8X9jGf01Gj/sKFCMbFuPaTh+lNC5Td6eeZ9tGbHdAB9cHPvptS8xj1eCaDZB5zzyyCOWoL/88svKFwAASF34G7AgDUTYk5ubS+vWrVMeCwDCxMGDB/VfXM6g+k22oJtUa1I4d0Y5/emxUsp5uIwKPywVV5GTl0m0oDtvK+9zjCSbgmvJq2qajFhHFugqKpAFPcb65jLWfcb2srMdr0MWXW2ZyDbcgu3apnmfsQ1doM3t23/J3Qt9HXk59yWd/exvImlWQecpLqag9+/fX/kCAACpy2233RaogQh7VqxYIebeq44FAGGisLCQ/u7v/i6j6jdVBN3E+cvlMgkRdMff1S6KKjG1j7IL4VSMTkdkWD0qb+K1vktqbaPM+ui4LNzODw5OxL46t+n1vM4PFEKiYwm6/ppc++lY1+t5bfuSQJpV0L/44gv65JNP6OTJk8onBwCkHjyC/Nprr9GiRYvo1ltvDdRAhD187gzPQ5d/wROAMNKzZ0+6/fbbM6p+M07QbbLoGPE1RndVf39TKN3y7LgvhtzGXF+5jEL6xfPYBd31ASTqNo37srPdr9ePoHsuYxd3P/ubSJpV0M38+OOPyicHAKQe3LFzw2DiPEE0WgORDvnggw9wUjsINfwhu02bNq66NUnXZLaga8gj0T7ENKZwJkXQjQ8a0r4pR9BVzysE3TmirRixd5LJgs754YcfxEkrkyZNUr4QAEDy4ZO5ZTn/zW9+E6iBSIfwKHrXrl3pwoULymMEQCrD3/7wlFKv0XMmXQNBl6eKeEzbkIgtnNG34UdY3cvEEHSFLPsWdL5PrG/fvj4abx+ht+Oxn7YPDv72N5G0mKDzZYaefPJJ8YTjxo1TvhgAQPLgUWNTzJl27drRf//v/z1QA5Eu2bJlC05sB6GE+9e//du/VdatSbqG2y3VMWlOWLL5kolHjhxxSbiXoPOlXBN/mUVdMmVZVIlpVU4w4dS3IQuz4yTRGOu7l4k1gu6QZUO4o2/TcZ/4oCI/hzEq75J07bmMddzHSl9HHnn3s7/u+xz7E2O+vQy/n521y3glrsrmESn5ii7M0KFDxVnmqhcFAGg5eKT4rbfestUn87//9/9WNg4s7pmQefPmiRNGMR8dhAU+MfTee+9V1q1JOtcvt1uq49Kc8NVZ+Bro418rotLixeJn/E0Rdwo6S/zi8krKN5bftXOXcpt+0IXS/rdVTeMQsuixjF/hdD6XKZt+1ncvE0vQNQzBFmgfQqr4+aNu032f+Zrl/XUfM8VIvfS483j6eV73fSku6JyioiJb52/CHSCuOwxAy3P48GExpcX8MTGZf/qnf1I2DEwmhU9y58EEPlaqYwhAKsDTR0eMGCF+VExVszLpHG67VMenueEP8WtWraPJ7xTR2JeLhJTv1OTbFHSeQbBg3iLx2MQRReLXRzGFDsSC389BarhJ1c2dnXMkXYY7wsrKSuvFcaPD9/nBObf9448/Vi6ngp/HXI9H9VXLqJBfK8OjkKrlnPBy8nq8HdVyKjZu3Gith+PjBscnOvLxcU5pMfn7v/97uuWWW5QNQ6aMnsvhzpXnpPN7BN/6gVSCPzjyqDn3q//rf/0vZc3KpHv9cvulOk4tyebNW2jGpBIa85I+Sp6fq0v7lPfm0xfrN1BdXZ1yPQCc8PtZVcdeafLHb+7s+DJmshDIyNLC87RUy6hg+ZB3jEfmVcupkH/aW/6J81hwwyg/5zPPPKNczgkvJ6/H21EtpwLHJzo4PtExj8/NmzfpxIkTtsceeOAB+su//Etlg8D89Kc/Nao4M1NWVka9evUS7dfrr78ujjsAyYBHy/lDI/8Q0T/+4z96fqCWyYT65XZMbhuTCU99mTeznD6eUd6kqSwgc+H3s6qWvdJkQefU19eLKS/mSaMyf/7nf269CP6RFOfjXji/2uNGS7WcCvnHWPiScqplVNx1112252zdurVyOSe8nLweb0e1nIqf//zn1no4Pm5wfKIjHx+Gr9LCYv43f/M3rp/zl+F9RPTwXNJf/OIX4rgDkAx+9rOf0Z/92Z8pa1VFptQvt3Eq0QEgjPD7WVXPXkmIoMvhEypmzZolfnWUr9sqXxqKfySFxckPzl9M+6u/+ivlcirkH2Ph51cto8IpOzxvV7WcE+f8Xt6OajkVd955p7Uejo8bHJ/oyMeH8dPJZ/rIuVf+4R/+QXm8AEglMql+IeggnUi6oKsij0gCAJIHEjtor0CqkmmBoIN0IiUF3cy//Mu/KF8cAKD54JFhJHjQXoFUIJPrl69IdfHiRaXsABA2UlrQEQRBEARB/IRPnMUlUUE6wJfu7NChAwQdQRAEQZBwh89l4ytpqYQHgDDBV4f7t3/7Nwg6giAIgiDhzvTp08VvWKiEB4AwUVVVRf/6r/8KQUcQBEEQJNzZtWuX6zctAAgj/Fssziu9QdARBEEQBAll+MfE8Iu/IMzwr5PzrwN7/QCZVyDoCIIgCIKkZL744gvxS78q8QEgDEyaNEn8IJlKzhmvQNARBEEQBEnZ5Obm0rp165TyA0Aqs3v3bnFyqNfoOeMVCDqCIAiCICmb+vp6THUBoYOv3MLX8pd/ndxJtF8GhqAjCIIgCJLSqampoQEDBmAkHYQC/jDZqVMnuv3225VibhItEHQEQRAEQVI+V69eFdNdRowYIU68U4kRAMnkwoULYs75ww8/TLfddptSyk348WiBoCMIgiAIEpqsXr2aOnfuLE4eraysxNQXkFT41275Ouf8wfHRRx8VJ4RGm3NuEisQdARBEARBQhWel85XeGFRz87OpgcffBCApMDvP/4Rop/97Gf0k5/8RCnjTh5//HHjnewdCDqCIAiCIKHNH//4R6UEAZCKtGvXznjnRg8EHUEQBEGQ0CfWnF8Akk2QQNARBEEQBEmL8NQBlRgBkEz8jprLgaAjCIIgCJKWYTECIBk0NRB0BEEQBEEQBEmhQNARBEEQBEEQJIUCQUcQBEEQBEGQFAoEHUEQBEEQBEFSKBB0BEEQBEEQBEmhQNARBEEQBEEQJIUCQUcQBEEQBEGQFAoEHUEQBEEQBEFSKBB0BEEQBEEQBEmhQNARBEEQBEEQJIUCQUcQBEEQBEGQFAoEHUEQBEEQBEFSKBB0BEEQBEEQBEmhQNARBEEQBEEQJIUCQUcQBEEQBEGQFAoEHUEQBEEQBEFSKBB0BEEQBEEQBEmhQNARBEEQBEEQJIUCQUcQBEEQBEGQFAoEHUEQBEEQBEFSKBB0BEEQBEEQBEmhQNARBEEQBEEQJIUCQUcQBEEQBEGQFAoEHUEQBEEQBEFSKBB0BEEQBEEQBEmhQNARBEEQBEEQJIUCQUcQBEEQBEGQFAoEHUGQtE2vXr3owQcfBCAt4PczEklNTQ2VlZXRK6+8Qjk5OdS5c2flcQOgOeD3G7/vmKKiIjp69KjxzkxMIOgIgqRtuBG9Vl9PB65cVVBLB2Pw1dUIh2qvUc31Oheno3DGB9+b1N1QcjYK53xwPgYXmBtqLiqpt7gUg8sxuCKj/Z2cXPVBrScN2t8+OtdNGrypi8GNKNTbuKlz005DDG4aXNGOPb+fEaJDhw4JKWdBmjRpEm3cuJG2bdtGx49WU+2lkxKnolAT4bKaa5dPx+AMXbvixfeeXL9ylq5fjca5KJyn67Xe1NVeiMJFqrsWjUvRuc5ctrjh4oo3dVdjUGuj3uQGcy0G19XUM3U2GpTccNMgU6+kpuaUeN8xU6dOpa5du4oP0bt27TLeqU0LBB1BkLQNC805TWyKTp+nYo35BiXMmQu0wKDUoMyg3GDh9zoV31+0WHRWZ7HBJwZLDJaeu0SVBssMlhusMFh5/rLFpwZVF64IPjNYZbDaYA1z8Sqt1VhnsN7gc5NLV+kLgw2XagUbmcu19KXBJoPNBluYK9doq8E2je0GOwx2XtXZJbhOuw321OrsNdhnsN/gwLU6wUGJrwy+1vjG4BBz/QZVGxw2+NbgO0b7IHHE4GhdvcUxTe6Z4wYnDE7eaKBTjCbgNQan628Kzhh8b3BWE2fmXEOjxfmbOhcMLhpcMrjMNP5AVzSuGtQaXDO4/kOEuh9+FNz4UafeoMHgpkEjo713fzD4kd/IWr7Rjj0EnWjWrFnUs2dPIeVXLhyjs0c30ol95XRsT7HGfIMSOra3hI7vXaBRSsf3MWUCXvbEfmahQQWdOFBBJw8s0jm42OLUwU/o1FfMEoOldOrrpVTzdaXBMqr5hllOp79ZQacPMSsNPqXT1Z/Smeoqg8/ozGFmFX1/eDV9/y2zxmAtff/dWjr73TqD9XT2CPO54NzRLzQ2GGykc8c20vljXxpsovPHmc2CC8e30IUTzFaNbXTh5Da6eHK7wQ66eIrZKbh0ahddqmF265zeY7BXcPnMPoP9Ot8zB3TOHqQrZ78y+JqunGO+EVw9d4iunmeqDQ5T7YVvDb6j2ovMEcG1i0fp2iXmmMFx7YPPcbp++YTGSe3DDHNKUHelhuquMqcNzmgfOs7Qjdrvda6d1TgnqL92nuqvMxcMLmrCf5Ea6i5FuHFZcPPGFbpZz1w1qKWbDbXU2HDN4Do13mTq6IebN+iHRqbeoIF++EGjkT9IN9DBgwdp6NCh9Pbbb2sfCOqNd218gaAjCJK2gaBD0CHo6ZGrV6+KUfPCwkIxentGk9yju4sEx3aznEPQIejJE/Qff7gp+OGHRiHqVVVVNGDAAPG+jTcQdARB0jYQdAg6BD09wvN8161bR5e+/0ZI99Hd8yDoEPSUE/QfNUH/8UeW9JtiNJ0lPd6RdAg6giBpGwg6BB2CHv5Mnz6d5s6dK+T86K65GiznEHQIeuoK+o8//iBG03kkPd6TuyHoCIKkbSDoEPR0E/Thw4e7SOfwCaE857zu2mUh3BB0CHpYBJ3hkfTXX3+d/uIv/iJwrULQEQRJ20DQIegpIeiNjXT9+nW6rr0XmyroWVlZLtI5PLWFr5JxWhNcXc4h6BD0lhX0m5qgc/3W1V0PLOjMt99+S4888gjdcsst9A//8A/GOzt2IOgIgqRtIOgQ9KQLuiHnfLJYbW2tJekQ9Njh60rzpeuunP+Ojuz8GIIOQW9xQb+pIdfvDZb0AILOFfyD1g68/PLLdOedd4p6/elPf6q/wWMEgo4gSNoGgg5BT6qga3J+7do1+u6778Rl1/hayVeuXBGSDkGPHb6kYmFhIZ3RBBaCDkFvaUFnOVfVry7p/gX9R62mKysr6Z577rFq9he/+IX+Jo8SCDqCIGkbCDoEPVmCXqttz+zcX331VXr44YfpiSeeoGnTptGlS5f0kfQffoCgRwlfVpGvd84yDkGHoLekoDdoRKtfnu7SKKa7xBZ0zuFvdlN2dratbh9//HHxmFcg6AiCpG2aJOgVAyKNafuJNC3Jgp4/INKwq/jNxP0QdEPOky7o2mNy5/7kk0/ShAkTxCjcU089Ja5KcuHCBSHpEHTv8NUv+CTRIzvnBBf0wscix+j+PrQp6YI+l/IfsP/dTNqPKmlBQZ9GA43nHViWKoJeQoON1zR4aSoIemTkPFr9ijnpPgX9+1OHXILORAsEHUGQtE1TBH1EP7khfYj6b4egQ9BjC7pKzmfPnk2nT58W10XmTv6Pf/yj6OTPnTtHddr7s/6HHyDoinTs2JEuX74cl6CXdJWP0d009tPUFXSm/bslEHSN5Au6feQ8Zv3W1VFjY31MQb/0/dfK+uWTR70CQUcQJG0Tv6AvoY6iAX2IftVeb0h/lb8nRaa47KeXH9JfE0s5prikjqCznPMJZc7Off/+/eJSazwKt3fvXho5ciR17tyZZsyYQWfPntVH0g1Jh6BHwvvLl6kLLuhvUG9xbO6mtvfrx6jtiCkpI+jtRxUbU1zyqZ/xN8zqmQ9B10iuoNfGVb/mSHo8gn7bbbeJx1WBoCMIkraJW9DN6S3tJ1CB9W99mktE0JdQJ6OR7VSxhH5vLFN4bik9Ydz/xGLj39r9szQxH91fvz/CQzR0Fwv6PsoxpDtrQGVE0JcMMpYbRPkxBX0/vWJuY+CyiKAvHWxsYzB9cHk5PSv+nUXPLT1Ar5nLa9w3+aBN0KcOijzGvLAMgh5L0M2rPfAom9y5v/TSS2I0+Omnn6aJEyfSzp07KS8vj7p06UKlpaVivbr6egi6I3EL+kfG9Bae2lLY0fh3XzHNJSLoI6iPcfz6zBqp//v+/rT5YJ51f9/ZedSX/91mIG3RBL2sm35/hF/TuLUs6LNofBvjvh5jI4I+9yljuaeoIoag9yu2T3Gp6GVsz6B/iSnok6m/cd+Akgp6v21kmQEL7IK+e+x91mOCPtMcgr6cJraLPD5woSnohdYygyo+pUnGIEVW1v00absm5xXdrHWy2o+k/ZKgV7rauAdo8i5T0IsiIr5kvv7vh0bTQZegb6IPrbapHX24XxP0yr7GbZO+tDLBgt6U+q2/UReXoDNegaAjCJK2iVfQzektv8rfTQu3T6BfiYZUn+aiEnQLh6DL9886t5eGWB2dzCAae/4yzZ3Qwbo9zhD08ca0lnsm7Pc1gl46MbKNyYagTx6oL3vvpAP0pSToKp6v1AXdKecmXYSkQ9A9BV17bXwpto8++ojmzJlD+/btE537c889J+4bN24cPfPMM6KT52t78338S4P8NfkNCLor8Qq6Ob2l7Vsf0vGVfaitOE6/EtNcVIJu4RB0CyHo2t/PlHAbT1D5N8tpW96vjdtP0kJD0Bf20Jdp/87cKFNc7qH8z+0niVb0VC1nSnpE0N08R0sMQV/SR/G4Q9DddKWlDkH3Q4f81Yagr6XJyjauJy13CLqFStCX9jYeZzk/qZBzJvGCziPh8dZvff0NCDqCIIjfxCfokekt/bbzVVx2U39pmotS0DUB/0i7T5/iIgm6MXKunuKylJ40lntqMU9xqaSnzNtLWNAr6Q/idgf6j91+p7gso87GNjovZUE3hbwDDdvHU1wkQR+03JjicoBe62Det4K27f+Q7jPWeWO/PsWlcrIh/trjEHRvQec56DyaxnNY5c69vLxc3H/ixAkaP348PfvsszRp0iRxm++/0dCAOeiKxCfokektY1fyVVym0FhpmotS0FnMrSkukqC3GaCJudcUl1H66LpG37k8xWW0dJsFfaxxWxPwdbHnoFsj6F+8TO3Ffb+h/A36FJedo3+jL9drsl3Qe3+gT3FZ8KyxnftowiZN0De9Rg8Zyzz03lJjestSmvieQ9D7ztCnuJR3MdZvTRO3OQS9X6GY3rIv/35jGR5V5ykuqyIy3n+ONYJun+IylwYZ6wxe4hB0TcwPKKe4LLD+3WHSZjHF5avJ7fR1Ooyjr5t5Dno89RuRcwg6giCIr8Ql6NbVWwbQCOMyi9PyH9Lv04R7ukLQO1XIc9DlKS72Oeiz3ze240AX9Cv0nnki6IDKyPSWhyZTMcu5L0G/ShONEfOsgctpgzm95aEPqEKTcVnQn9ME3pyDvlgS8G2V5pQYBR0+pOUQdE9BN08Q5c6dfwFT7tx5dJ3nmh8/flx08s8//zxNnjxZ3OYTRW9iDrorcQn6R78zjstjtMC4zOKmEXfr94lpLm5B7zNLnoMuT3Gxz0HfMrKVsW07uqCvsEbMxTQXc3rLAzm03XMO+hpptPxpqmBBL37GuK2g7au00zbFxZyD/iENMO9boAn6gueMdZ6nJX7moG990xB6t6APqjDmoFe8aGyzGy015qBb01kkQd//fhtjOTtOQR+8RD0H3eKhsfSVOQddOb0l8YJuXlpRVb88us4o67eujn5ohKAjCIL4TjyC/pbt6i1OHqL+O+IU9MUDre38+v19ihH0K1S1ezLdI+4bRH8wZP0PSwKeJLp3Mv1GbGMwdTZk/VlNxvWTRNWCPsWc0qIJ+lJT1rX1p13BSaJBBJ07cnMOK4+yLVy4UNx3TXsP1v3wI13X1mFJ51/IzM/Ppx49emAOepTEI+j2q7c44WkucQr6nN9b22mXN1Mxgr6CTq8dQu3EfU9SX0PW+82NdpLoGvq+6Glxnxgx/2Id7XjXGC3PeoYqlCeJxhZ0a+5521za3ZKCvri7sUwWdXh/bdQRdC9B7/BQW2MbbenDfYagi5NEy2iIsYxOO5qyv/nmoMv1e6PuGjXevE4NDfzv68r6xRx0BEGQAAku6Ob0lij0XxKXoM8yR8/7L9WnuOyaRL82lrMEXWOc7XKK+smhQa/iYo2iCwbTZCHnXlNcltNzxn18oqg8gt5au20KeuXkwTR8PwQ96gh6XZ2Ywzp//nybnPNP/rOgC/in/7X7jhw5IpZbv349Xec5rMY0Fwh6JMEF3ZzeEoUXR8Ql6NboefdR+hSX1YMMGZcE/ZA0ii7gk0OjCfp8adqLewS9/ehSS9B3ju5M72/wJ+h+p7gkWtCt0fP+c/UpLrveoQ7GdvwK+uCl0gmiD71HX7mu4lJuifqQZQmeg3691lW/9TeuU6Mm5izojTfr6GZDnZB0uX55ZL2hwbzUIgQdQRAkZgILujW95SHqK+afR35JdKQ1sj6QRjZF0BXIgv6ZdeUWjQGV8V1mcam0jYHLpcssSoLuYjBN0WR825WDlGvOSbfRAYKuEU3QxXXQWci1jp2/9jblXBb0G5qAs6TztBZejuUcc9DVCSzo1vSWu2nMSvsviS540TxeHWlBUwRdgSzop+c+GXmsx1hDzu2CriJyHfQFHsvd61/QfZ4k2myCrsC/oB+na/vGWmLfYfLmyBx0G4kfQec56DxabtavGDlvYCKC/sPNG9p7kh+rM5ZjOcccdARBkEAJJui7qa950lP7CTRFu8/2U/8VkSkqLOTB56DLV3HhyysqpriwoFvTXCLTWwIL+t7JdK+xDZ7eohL055ZGRs5Zvl/X5HurEHT1ZRb1E0Qh6LEEXZwoWl+vY8i5U9AZ/nEiFnMGvySqTjBBn0RjWhvHpHVv2uj8qX/zcosafWbGMwddvopLKxq3WjHFhQV97VBpZD3+XxJ1XmZRP0HUv6DzZRadkv7Qe5XNPAd9rXQVlzY0WftbBZ3iYl4HfYXU/nTo4BR0lvPmOUmU4VHzG2LkXC3oPzTeED9OxCeHNmj4+SVRCDqCIIiUYIKuz0FnxE/9a9gE3SByFRedRP9QkXW5xYcmU5Eh53ZBv0rrDFjOVYJeZl5u8aEPaKHth4rUc9DxQ0WJFfRrBlEF3QA/9e+dYILOGNdB55/6dwp6C/3Uv3W5xTZDaZvth4o+ozOHmVX0/WGe3mLMQRfYL7PYvD9UxOwUXDplCHrSf6iIOWaQzB8qMn/qv5ZuNtRGFfQfNEHX8fdT/xB0BEEQKWESdOsKLgY8eq7+JVFvQbfPPdcvtWj/JVEIOgQ9PAmToC/sbv+b8Oi5/ZdEIegQdAg6giCISFgFXb8OetMEXb8OOgQdgh7ehFXQ9eugQ9Ah6BB0BEEQZcIk6NYcdIN4BN2ag65h/dS/TdBraZMByzkEHYKeygmToFtz0MWviELQIegQdARBEM9A0CHoEPTwBoIOQYegIwiCpGEg6BB0CHp4A0GHoEPQmzE1NTW0a9eumBw6dMhYQw//UpNqORX19fXGWiR+BUq1jAp+Djn79+9XLqdCzvnz55XLqOBl5aiWUYHjE51MPT5cX4h3IOgQdAh6eANBh6BD0BMUp7CwPPAL8kNOTo6xlp7Ro0crl1MhSwpLjGoZFfwccjp37qxcToWcFStWKJdRwcvKUS2jAscnOpl6fHr16mU9NmDAAJo+fbrrw0omh48LBB2CDkEPZ3h/IegQdAh6E8Ji/sorr4gnZ8Hh/Kg1Mje0jpHv88PQoUOpsbHR4t1331Uup+LEiRPWejt27FAuo4KfQ37OIIIlr7ds2TLlMip4WXld1TIqcHyik6nHx+s5WdbNWszk8LGAoEPQIejhDO8vBB2CDkGPM2VlZeJJTaZNm0YN/MtoBj27v0D9ej5L/Xp58Zxg/Jg3qfbSKYvCae9bj+k8b6d3hONHDlDt5RrBnp0bjPtfoP4xmDl9ovZGOKNz5Qzl/udQ6t+niwddbVy78r3F+jXLrfsH9HlRp6+az9euoOtXz2qcEwzo2y0G3WlAv+70/vhRdL32vMWswinifpOB/Xp4cur4Ye1NfEGwf892Gti/pw960eyZ06ju2iWL4bmvivtdDGB626i7fpluGGz4fDUN0u7T6ROVDZ+voRt1VzT4J3ev0qCBfWPQTzBxwnht+VpBvcbHswtpsHb/4EEm/T05XXOC6m9cExw8sE+7b4A3g00G0scfz6b6+jpBg8aIt4bTEO1+N4Nc8K+PCRpu0JdfbqAhQ7T7BYOj8uWXG7V16q366tz5GVv9OXn77bdtU3gyLXwMIOgQdAh6OMP7C0GHoEPQA4Y7fe78+QllRr39Mp3V3kRcCN7F4ywgE3shqYtJLiipqByFdZILy1VcHgUmFZlVaKpiUxWcVHRW4XkUn7oApSI8wkVoYi9GdUF6FaWJszjdBaosUoFZqJFitResR9EKDjqK16OAFUUsuOAoZlVBq4raVthycasK3F3ktkKv5UI3cRa8qujVha+jFb6rAVA1AvaGwMTdILgbBf6A8MXn62nEiBGumuRpMJk6V533H4IOQYeghzO8v4kV9LeoT1ZHWgBBV/f9EHSPvjlkgu6U806P/zt9unC8q3Ag6BB0CHrzC7rcMHz33XfUtWtXW3065+hnSnjfgwn6burb3tGAtp9A0yDoEHQDCHrLhfc3PkF/g3rbjpEm5RB0V/8PQU9DQXdOa8l9pTcd3q4uHAg6BB2C3rKCzo3CzZsN9NFHH4n6xAh6UEF/iPpuxwg6BB2Cnuzw/gYW9I9+px2Tu2nMSmkE/dM+1HvEFAg6BF3ZT6eNoPMVIvhJTHJf6SUVDQQdgg5Blws/WYJusnv3bqqtraUFCxYYFZxZ4TYqcYK+hB7PGkgjd0ykX5mNa/8lhqAvod9rj+VJgj6qfxY9sZgFfSk9oT02evFAq0F+cvFl+vj9h6zbT2m3IegQdAi6Pby/wQSdR841OV/hb4rLphG/ko5jJyqVPKK0m3SMu+VZ/lAm/aR/Vvd3IegQ9NQRdP6qnJ+E6fT//TtVb5eLBoIOQYegy4WfbEHX/iM6OOa2226j4cOHG5WcGeF2KrGCrjWo7SfSdE3EF2tS3km73anCj6Br6/Vfqo+gm6I+YKk+gr54kLbNSTRXE3AIOgQdgh4J728gQefR89a9aKOvOegFNPbFfrTJ8AkW8nZvT9f9YXYnymozgLY4HWLO77X7B9FW2R8g6Or+HYKu98EtJej8Qyz8BCY85/zILgg6BF0qWgi6rfATJeiNGtevX6cbddrtgILO/+crvvzxj3+kVq1aCTIl3E41dQ76r/J3S4L+EPXfEZnikqdJeKv8PT4E/SEavNOc4rKUntRuD91lTnFZSk9lDaL3NAGHoEPQIeiR8P4GFvSubzj8wkvQHT4xS5PybiN1f1g1gNpldaIyp0OsGqTd/3sqh6BD0FNR0HNzc+mRRx6hlwZ1FQUDQYegQ9CbV9BNOedfOeXpKrqk+xd0biA2btwoGgfm7rvvpp/+9Kd6Uad5eH8TPsVFk3BT0GfkP+RT0AfSaCHnpqAPorGanEPQIegQdO/w/jaroM983H4sTUFneBRd3K+JuuwPPIou7n9CE3UIOgQ9RQTdDEvCga3lEHQIurtoIei2wm+qoN/UuHbtmrgyC185aerUqXTlCl8nXmsoAgj6+fPnRePAtGvXjm655Rb6xS9+oRd0Gof3F4IOQYeghzO8v4EEPcgcdJbz+yNTXGwj6AbCIebwdJeBtMXpD3Oe0O4fTFsh6Or+HYKu98EtKej8C6H8dTkXBwQdgg5Bbz5Bb9D+bcr5q6++Sg8//DA98cQT4sfALl26RHXGSLofQed0ff5J0UAwf/ZnfyYahscff1w8lq7hfW0ZQd9DA9tn0e8rDEE35plD0CHoEPT4w/sbTNDn08Y379aOSeyruIgTRF8cYfmEOClUJeg83UUl6KsHafdD0CHoKSToP2gNDQu6WTB+Bb2kq/tFtX1rsiTniRT0PK0I9efoO6eZBH3uU5F9eSCHtrsEPZ/6GY/3K2oJQZ9CA4znG7AgmqBPo4HGcgPLIOipKujyyDnL+ZNPPkkTJkwQo+hPPfUUTZ8+nS5cuCBG0v0Ket+enUUDwdxxxx3W+zedw/va1DnoWVkDaGRMQb9ISyoiV2nhE0Ixgg5Bh6A3Lby/QQVd8NFj9mN0fx/aJJzCcZLo/ZFl+nSTRtCt6S1MKxq3yvAHa3qLcf/qiDtA0CHoSRN0vrwiX8Fl5syZtGjRogCCPpHGtHa/ICYhgv5Zf2rH27u/P21uQUGv6CHvyz2Uvz4FBX1TLj3E97XLpT0QdEeBp66g39QaAqecz549m06fPk0HDx4Uks4nfLKknzunvTZrJD26oPMlUbmBYH7+858b790scU5Juob3NZig6/DouXsEXYfl3BR0BtdBh6BD0JsnvL9xCbrnHHSVU5g+4f4m3v0tvMIfIOjq/h2CrvfBLSHou3btEhtnhg4d6l/QxY8G6C+i90dm8Wis6E29EyDom982rmNqE3RGK6pmm+LyniHf91D7B/R9az+qKMmCLhelzu6x9+nHBoKuKPDUFPSbWkPAJ4Q65ZxP0H799dfFKPrevXtp5MiR1LlzZ5oxYwadPau9RiHpWuMQh6Dz5RfTNbyvEHQIOgQ9nOH9haBD0CHoMZJwQXfMQd/0Fs8bk170/X3FV1J6MY2wRsT7zDT+rQn5e/IPCRi0GzlDKyznCHoe9bVuF9K4NpHl+86RBX2W7bF2eUMi682VBN2c3sJTW6x/vySmuUQX9BLKN4SeaT/6Zepv/Lv//Iig7xz9G2sZQdthtNMqyA+kkfIP9X+3fY12O0bQl/Qx1pV46L2lDkGvpIntIo8PLDfl/KPIMgtXSMvcT5O2a8Va8aK1Tlb7EbRPLtqKbpHHBN2oEoLuW9DNq7XwKLks5y+99BJ17NiRnn76aZo4cSLt3LmT8vLyqEuXLlRaWirWq9dENB5BZ9I1vK8QdAg6BD2c4f2FoEPQIegxEreg736dettezO+oxFFACxTz03U60gKHoFvEKehuzEsl2eXciSzo5vSW9u/MpTPrcqi9WEaf5uIt6HY5d2IK+uJe6sezsp6lxQ5Bt4hT0N10oaUOQffDQ/lVHnLOQNCDCHpd3XVxlST+mf45c+bQvn37hJw/99xz4r5x48bRM888IyR927Zt4r6qqipxwmh9PQTdGd5XCDoEHYIezvD+QtAh6BD0GIlf0LXiWdGL2jpfVOvetJELaGUf67HehUYhfdrXuq/tiCl2QZcvi+Q5xSWKoHcbpRcYXyJJ3Pdr/USPtYP1uey8zlytyLjY5j5pLCML+lhrekv+Oq3Yquda4s3TXDwF/Ys/GSKvyXixUYDznxG3xX0s6BteiSxTYhTjhmHWfe3HVNgFve1/0i6rKN1z0GNNccnqO10v0rIu+u2s1jRxq0PQ+34kCnXv+PuNZbJoUAUX7Kc0yTyZrt9MUbD78o1l2o+kfZjiIuFf0Lkh4NFwnoMuy3l5ebm4/8SJEzR+/Hh69tlnadKkSeI2399QX+9qGCDoEHQIOgQ9zOH9haBD0CHoMdIkQTeLxynqXd+g44XG2dZ8lrVUSAteNJYRl0GSp7jIBRVc0PvOMQtslHSfVmBzTWF/ghZyoYlim03jjVF1S9Ctq7c8RRVccBrbR92j3yemuXgIevHTxnrPUIVVgAsov62+jBD0+Z31Zdq+QjulYlzcW18mq/cHNkEfsEAuyuCCbs1B3zJcP5lUIegDFxrFurCrvq2sF2mpUbRL++nLmILuPb0Fgu5X0G/WR+ScT8qW5ZxH13mu+fHjx4WkP//88zR58mRxuylz0Jl0De8rBB2CDkEPZ3h/IegQdAh6jCRE0I3iiVxy8TEa+5Yx9zzJgr4179f6dtoMpm2WoI+OLGMI+kLb1Vuc8DQXtaBvf9eYV/7Ay7TDKsAJtjno1tzzsAq6YBYNMtbVaUOTd0DQ/Qo6i7g5B51HyRcuXCjuu3HjumgMbjbcEDJ+9OhRys/Ppx49evieg7588SwxZ/2uu+6i22+/XfobQdAh6BB0CHrqhfcXgg5Bh6DHSFNOEm375iRb8ViCfn9v2hRjikufQi6klhxBZxk3BN01xWWstY4nPfNjjKDHP8VlQAkXY6oLOsNXcZltifqgCgi6X0Gvu35NzEGfP39+RM7rWM4jDYIp6UeOHBHLrV+/XsxBb2iotzUMTkHnBiI3N9f4O9pJ13B7BUGHoEPQwxneXwg6BB2CHiNNEXTVC2LM66B7niQqruQSXdDFz/NK68S+iouHoPs5SdSa3sLzz42CM4quoqe57B+oQiXoTT1JtO0w2iWK0b+gX1jwvG0b7qu4JFbQrTnoNjCCHnQOOo+W61Na6nQ5dzUImqTfrNeWq7OWE3IeYw46BB2CDkGHoIcpvL8QdAg6BD1G4p/i4ryKi07vj+QCUkj6i29JxRRF0LWCEj/Razwev6AzkSktfPLo+LXyFJe51nz0LL68ollwZtHN+4Oxnibk81SCzuRbU1qysn5D+RvsU1zMyyy6JL33ZKkgAwi6Vpzy1VxaXtBNOYegBxF0bgjq6+uoXhNwdYOgNwqNGnxyqC7n7oYBgg5Bh6BD0MMc3l8IOgQdgh4jiZyD7i4gE3shqYvJLeiqwkrEDxVF5ps/SQu52FQFJxWdVXgexecswApLxJ+hCi7CBP9Qkbs43QWqLFKBWaiRYrUXrEfRCvBDRU0VdG4ITLwE3d4oxBZ0nCQKQYegQ9DDFN5fCDoEHYIeI3ziGkv6jh076Ouvv05DQfee4tIu72O92Jok6N5TXNqPLtWLEIKuA0G35ByC3rTwvkLQIegQ9HCG9xeCDkGHoPtMY2OjrWDSW9B5motUbAkXdJ7mIhUhBF0Hgm7JOQS9aeF9haBD0CHo4QzvLwQdgg5B95n0FXS9yOQpLq5ia5KgexUgBB2CDkFvrvC+QtAh6BD0cIb3F4IOQYegx0j6T3GBoEPQIejpFt5XCDoEHYIezvD+QtAh6BD0GMnEk0Qh6BB0CHq4w/sKQYegQ9DDGd5fCDoEHYIeIxB0CDoEHYIetvC+QtAh6BD0cIb3F4IOQYegxwgEHYIOQYeghy28rxB0CDoEPZzh/YWgQ9Ah6DECQYegQ9Ah6GEL7ysEHYIOQQ9neH8h6BB0CHqMQNAh6BB0CHrYwvsKQYegQ9DDGd5fCDoEHYIeI6kn6CPFz/n3mZVIQeef9n+CFkLQNSDo6Sbo0ya/TZ06daJWrVrRnXfe6auBCHu4vYKgQ9Ah6OEM7y8EHYIOQY+RJgn6il7UVnoxbd+cZBXQgq5Z1LvQn6AveFET8plyQcU7gj5KE3H5AD1B5RD0SJFC0NNS0LmByM3Nld73EdI13F5B0CHoEPRwhvcXgg5Bh6DHSNyCvqKnJue/oxKpeEre7EUbkyXoc36vHZBWNG61VGCrB1PfvFkQdAg6BD3Nwu0VBB2CDkEPZ3h/IegQdAh6jDRJ0FuzkMvFw0ymMffLL/IxWqAV0qYRd0v3daQFopim0Fjbso/TAjHF5XEqtQR9Or3XJrJMu5EzFMWVpwk4y7m/KS7b8n4tPedTtFAquIoekefK6jnOEvSKnvL9+bbig6BD0CHoLRturyDoEHQIejjD+wtBh6BD0GMk/ikuE2lMa+1FdM2ViidSQPYRdE3EX+xDm4xC4hHztiOmWMVkH0GXBV2Tc03gWcr1wsqj91SCzqPnbQbRFl9z0GfT+B5DaJtRbAs1IW+XN1cvuLlPUdYDObTdOYI+7w/a/f9B2zGCDkFPQUFfvngWdenShe666y66/fbbfTUQYQ+3V6evXRdyHk3QPUVdk3MTlvE15y7SWoN1BusdfH7+En1hsMHBRoMvL1y22GRy8Ypgs8EWg60OtmlsN9jh5NIV2mmwS5N0ZjdzOcIeg70G+5grtRb7NQ4YHHTwleAafW3A0ihzyKDa4HCtm28NvtM4IqP9nY4aHDM47uCEwUlN6E1OXbdTY3Bak/ozjCb0Jt8bnDU4Z6J9iGPOa2JvcsHgooNLBpcZTfqvSFw1qDW41iBzU3BdE06mzuCGg3qDBgMWVCGp2rEP2sGHPby/9fXaB66DywQnv1pusIJOfs2sFJxivmE+Nagy+EznELNKUHNoNdVUM2siHF5Dpw+vNVhncebwejrzrczndOY75guDDXTmiM73RzYafGmwib4/uonOWmyms8eYLVp/vpXOHZfZZrDdYAedOxHh/MmdGrsMdtP5U7vpgsUeg72Ci6f20cUak/108TRzwOAgXTwT4dKZrwy+1vn+GxuXzx4yqNY5xxy2uHLuW4Pv6Mp55kiEC8xRg2N09eJxBycEtRdPUu0l5lSEy6e0vrxG4zRdu8KccfC9wVm6dvUsXb96TqeWOS+oq71AddeYizZuXLsU4fplgyt0o07mKt24cZXqb9QaXLNouHGdGuqZOoMb1NBwQ+vLTeq1emUaDPT6vXT2u8D167uya2pqaNasWTRz5kxatmxZAEHXP92WaCIuXkzXN6IIuv2T7vHCjpT14ojYgv5Zf2p3f3/aLH3yVU5xYUHvNsr9CdhjBN32aZilvMdYXdDX5VD7rKeowino61/S7v8DVUDQIegpKOiZehWX7y5eEiPoTWXJidN04MABAJLCuXPnAnfwYQ/v7+XLl5XHA4AwEU/9Bq7sxsZG8WkgqKCbXz8JURdTXjwEnaVcfvF+BH1WJ028R0pyniBBn/uk/bWYgs5fV7Gwi/s1UZfnoPMourhfE3UIOgQdgp7U8L6evHZdKdxB2Xa5lhoaGgBIGkE7+LCH95f3W/cNAMJLPPXb4oJ+bM8kGtP6bhqzQiHoLOf3R6a4+B5BZ0H3M4IeZA46y3mbyBQX2wi6PKfMnO5iCjqPnjNFxnQXCDoEHYKetPC+QtBBuhC0gw97eH95v52yA0DYiKd+m1/QP/od9f5IEnRxyUW+qktE0Nu+9aEQ9E1v3a0J+ZvWFBcWcqegtx1R4BZ08W9N3mebcu4xB11jy8hW2gFhSZcEXXEVF3GCaI/R1hQXnoOuFHSe7qIS9M//Q7sfgg5Bh6AnM7yvEHSQLgTt4MMe3l/eb6fsABA24qlf35V96NAhysnJESeIfvDBB8aTBjhJ1HoxPHoemYN+fGUf4xrpfBUX+9Vaer9oH0E/UdXPWFZ1FRdd0s11+8xWjaAzS41LLUaWzWozmLaqThKVrgrTt4c0gm5Nb2Huofz1xhQXa3qLcf/nmOICQYegJzO8rxB0kC4E7eDDHt5f3m+n7AAQNuKpX9+VnXq/JBrnddBVl0myprjgp/4h6BD0dArvKwQdpAv8fpbrNhPql/fbKTsAhI146heCDkGHoEPQxePpGN5XCDpIF/j9LNdtJtQv77dTdgAIG/HULwQdgg5Bh6CLx9MxvK/NLehVOfbGlskuqFYum2j4uVvquUDy4fez873GpGt4f3m/nbIDQNiIp34h6BB0CDoEXTyejuF9bRFBz6mK3FddQNnaMW0JcYagZxb8fpbrNhPql/fbKTsAhI146heCDkGHoEPQxePpGN7XFhd0jeqCbNd9zQEEPbPg97Nct5lQv7zfTtlpSea/4D7eWS8M0x7Lp9F8AYzW3WmDYj03+vJt38hXPBaBny/WMiB8xFO/EHQIOgQ9QwR97/bPaPDgwXTHHXfQrbfe6quBCHu4vUqGoHuNqlvH3LZ8NRVk66It1jOWUYm3/DhvQyXo4sOBuYxrO+ZzVYn/68tkU0G19pjtNeZQlbRNkBoE7eDDHt5f3m+n7LQkQtCFkKsf9w8EPZOJp34h6BB0CHqGCPql77+m3NzcQA1E2MPtVXKmuBjSa9xXXZAj3a6iHO2Y51SZt3Vp5r+DdV9Vjnbbvg3xPNkFVG3c1pexC7gu8LJc688VWcZ8rsi2hdBnZ1O2te3IBwZzuyA1CNrBhz28v7zfTtlpSSDoIBHEU78QdAg6BB2CLh5Px3B71eInicoS7YF95NuQZsWouiXsCulnbNvxWEYXeVPaFfJtjJxHPjCY0h57P0DLErSDD3t4f3m/nbITlG+2FCrv94O3oKuFWyxv/W0epflBlteexyXo0x+VtpdFvaZH1gXhIZ76haBD0CHomOIiHk/HcHvVoiPoCtm1LScdc6eg20esHffZJDuCTdA9lrGLu+q5eJTdIfa8LQh6yhG0gw97eH95v52yE4Qdaz6ktm3uoe7Pd1Q+Hosggu5cdsMbv5TmqHssL89hN2TcWqayO7XN+iWNrjQe126PhqCHknjqF4IOQYeg4yRR8Xg6hve1xae4uERZn2YiL2MTawg68Am/n+W6zYT65f12yo5fTDm/6667qNNjDyqXiYVthNtAH8V2CLeQaXnEnBlGvSzBVi0vybeBbQRduU0QRuKp38CV3djYSDdv3jSeFIIOQYegQ9BTN7yvLX+SaGy5DizoyukrfpbRsMk2BD3MBO3gwx7eX95vp+z4QZbzJgu6nxF0x1QUGaXQi+Xd8m0TdGMd3kbkPhBG4qlfCDoEHYIOQRePp2N4X1te0DWElBvS6xRn8VhAQTduy9JsXq1FXk+8FptY66P3zhNSIejhJGgHH/bw/vJ+O2UnFk45bzlBjzbaHY+gm/BIvP63xhz0cBJP/ULQIegQdAi6eDwdw/uaFEF3CLXt0ofasoFH0KX7zO3wY/bt6IjXYz6Xhn0+PAQ9zATt4MMe3l/eb6fsREMl5y0i6B5TViL4Wd6xjAMxp135WkCqE0/9+q7smpoamjVrFs2cOZOWLVtmPCkEHYIOQYegp254X5tb0AFoKYJ28GEP7y/vt1N2ovFExwddct4igq4hlrX9cJG2zAteJ4nqt+XlhYBrf09rmemP2kbMvV8LSHXiqV/flY2TRCHoEHQIetjC+wpBB+kCv5/lus2E+uX9dspONBYU5tJbr3ZzsawkT7l8LIIIuiXd0t8mItixl+fH+PmsZcQou7Q9379aClKNeOoXgg5Bh6BD0MXj6RjeVwg6SBf4/SzXbSbUL++3U3YACBvx1C8EHYIOQYegi8fTMbyvEHSQLvD7Wa7bTKhf3m+n7AAQNuKpXwg6BB2CDkEXj6djeF8h6CBd4PezXLeZUL+8307ZASBsxFO/EHQIOgQdgi4eT8fwvkLQQbrA72e5bjOhfnm/nbIDQNiIp34h6BB0CHqGCPryxbOoS5cu4ooGt99+u68GIuzh9gqCDtKFoB182MP7y/vtlB0AwkY89QtBh6BD0DNE0C99/zXl5uYGaiDCHm6vIOggXQjawYc9vL+8307ZASBsxFO/EHQIOgQdgi4eT8dwewVBB+lC0A4+7OH95f12yg4AYSOe+oWgQ9Ah6BB08Xg6htsrCDpIF4J28GEP7y/vt1N2AAgb8dQvBB2CDkHPEEGfNvlt6tSpE7Vq1YruvPNOXw1E2MPtFQQdpAtBO/iwh/eX99spOwCEjXjq13dlyz/1v2TJEvp29yI6cXAZnfhqGZ38arnECjr5NbPS4hTzDfOpRJXBZ3YOMassag6tpppqZo2dw2votGCtxDqJ9Zowa3zr5HM68x3zhcEGnSMRvj+yUeJLg006RzfRWYvNOseYLYJzx7bqHJfZJrHdYAedO2Hn/ImddP6kyS6D3XT+lM4Fiz0SewUXT+2jizVO9tPF08wBiYN08YydS2e+Mvha4hu69L2by2cPSVTrnGMOu7hy7luJ7+jKeeaInQvMUYNjOheP0dWLxxWcENRePKlziTll5/IpTdJrDE7TtSsmZxR8b3CWrl3VuX71XIRak/OCutoLVHfN5KKNG4JLEa5flriiU+fkKt24cZXqb9RKXHPRcOM6NdQzdRI3tIK/oQm+TD3dvMk0SNwUXL16lV59qbdoIBhcxSU4EHSQbIJ28GEP7y/vt0p4AAgT8dRv4MpubGyky5cv04EDBwAAIWLYsGGigWAg6MHxEvSqHHtjy+RUuZdrGtVUkK1tO7uAqpWPO9GXzy6o9rgdG9d+5VQpl0sG/NqC7Eu6ELSDD3t4f3m/VcIDQJiIp37jEnQUDADhY9SoUaKBYCDowYkq6LK8VhdQtnZMmyTpVTkBZFxFUwTd+DDgEPKqgqa8HoMm75cOBN1Ouob3V3UcAAgjQesXgg5AhgBBbxq+BV2juiC7aSKaTEEXHzCyqaBa8VhTgaA3iaAdfNjD+6s6DgCEkaD167uy5ZNEhwwZohQAAEDqAkFvGnELujGibh1v27KmOFfpo9aaGGeL/zuXVwi2r+2qBV31mvXt5VBVQxXlaNuL9Q2A2Efp+e3C7He/9OXF67Ee49cQeR7X49p6EHQ76RreX9VxSDZ8Ts+bH5ZS7uRS5eMAqAhavxB0ADIECHrTCCLo8n3VBTnSaLRTfnWRZYG1jVi7Rprdgu5nu16CLrbvEGEh3NZr1v6tbc9LgnVhltfXn9/5fLH3y338nN8+iMfldcRr935t6Qy/n+W6NUnX8P6qjkMymVG0mP5H7yr6r92q6L90W00v5C1ULgeAk6D1C0EHIEOAoDcN34IuBNJ7iggv7xJZh+D7EXQnqu1631YLvW3UXBqhtz2v1xQYm/T73C9r1F5aRrw2Y/sez2Xf18yB389y3Zqka3h/VcchGayoWkP/PGQp/aTLGnryrXL6fMOXQtYh6cAvQesXgg5AhgBBbxpRBV06lio5dy7jLc4GPgXd/3bd64t1TYF2PZ+EEG/HsoppKHaZ9rlf5rYViA8LHs8FQbeTruH9VR2HlmT7jp30f3MrKKvrWmr98mJaXPkp7du/3wKSDvwStH4h6ABkCBD0phFkiksEfaRaftwul/EKetDtKp6Hhdp4jpjCK8t3wgVdsS0TCLoNfj/LdZsJ9as6Di3BsWPHqNe75WLE/G/7L6ePNBGXxVwmsZLuru2WRLRnjveXSSbWXCIJWr8QdAAyBAh604hL0BWCGV2kDZwi61wu8HZVz8P3sVBLU0qsx5zo0iBGtT2mndhfs8/98tpW1Mc9tp0B8PtZrttMqF/VcWhOzBNA/5+eq+j/7VNFIwvKlFLuhCX9lm6raOj4Jp44KmokW3vfR/ng2kJk6gfh5iJo/YZS0Oe/wDv1SxpdqX6c8bNMbPJpdOssavtGvuKxpsOvsbm2DYATbiByc3NtDUOsBiLs4fYqqYLuFEwh1rHE2VxO7qAdywXervp5+ITMbE0GXNLs2B/9pNHI6xH7bPsAIQm8uO13v1Tb0tbNsYu+/HisE1jTmaAdfNjD+6s6Ds3FZ2vWWSeA9htbSjs171HJuJOFS1ZS21cX0X/rvlpbr1y5bb9wPeRU6e972zkhSQCCnliC1m+IBV3jhWHKx49Udqe2YscDCvr0RymrdXfaYN0HQQfpAzcQEPT4iW+KS0QoBdpy9k7PQ2RNMTXWUS0XbLsezyNE3ykCxlfsMjaB1hH7LS1j34bf/XLcF2Vb5mO8zUwVh6AdfNjD+6s6Ds3F83ll9JOua6h08XKliDv5bM16evbtck3oP6NhE0vFNJgx05si6Fx7+gdYUd+uujPrKnL50oJq1X3askZtW+8TqY1StlliefeHZ2edRV/XfC16jVrPHbP9sD9vuhK0fkMr6G1feFST8EdpvuLxDW/8UhPtX2qPQ9ABMOEGAoIeP16CHmoUnTJIXYJ28GEP76/qODQXo6eV07/nLqK/GbBSyLdKypkNX26inPxSMe+8yztl9OXmLVRTU0PFCyubJOhCyk35FbWpnt5lPxFddR9vK8plWBXfZNme20Al6NHXNV+L/CHbuE/atlPy1R9G0o+g9Zs0Qf9mS6Hyfj/oYjvMQ56HUS8W8+k8iu4WdGv0XRARfPv9GmJ0PiLo8uMqqRYfCqT1VcvYnkPbvr4f0nL8AUHaRq/p9vUBaArr1q2jLl260F133UW333677b2WruH2CoLuhbvjBKlN0A4+7OH9VR2H5oLluqh8qZjeopJ0nvIyamoZ/azfSurwnxW0omq1EHOTpgm6Xo9OsbULsqpm/dWxXbbVU9Ls31x5CHrUdT1eiyz1ykEB3qbzw0j6EbR+fVf2oUOHKCcnh4YOHUqTJ09WCoBfdqz5kNq2uYe6P99R+XgsLLF1jXhrmPeJaS52QReCLE2L0UfapfU9RtD5AFqyLCRasV3baD5/SLDLt1jG+VzyMs7Xq90eDUEHCQQniTaNdBJ06+tlyHmoCNrBhz28v6rj0FywXLNknzhxwiXp0+ctor8fvJz+bvAKIfG8jCznTRZ0hbi6R5Z1AVZJu1ukpTo3kJexjWKzQHtMQ/HcrnJdj9cifxsgZN3+ukycHxDSjaD1G7iyGxsbxROpBMAPppzzKF6nxx5ULhOLyMizLsKRkWZdqMVthfC6p8QYo+3mMl6Cbpvr7pj2ovggIBACbjyfxzKR/TCXUU/ZASARQNCbRlpOcQGhImgHH/bw/qqOQ3NhCjrLtizpfAIoX9Elv7BcXH7RKebMlq3bxE//5xfGd6lFIeOKv61qOktsQddHueUP4C7ZZmk2xDqaiKvu9143mqAbHz4UU2QyhaD126KCLst5YgTdGAU3BVqWXKcUGyPWKmyj4wpBtyRadZ8s4jLy83ssYxN088OA9nrszwdAYoCgNw0IOkg2QTv4sIf3V3UcmotxH5WLkXJTulnSf//mQnohr5wOHDhoE3ITHl2fPLuCns9bSAVzF4l1VNuOji62qhFk22i1X0FXSLBbtnk9ln/v6SWegu65rur1acij7PJourxMBhC0fltM0J1ynihBl0fB3SPSTkGPMUKdVEE30b8V4D8a5qCDRAJBbxoQdJBsgnbwYQ/vr+o4NBc8Ct5lVDlVLF1pCfg7BWXWqLrMkSNHaM6CJdT93TJ6Z1oZ7d23X7lNX0QbVbY95lPQnRIstuEWZx61d11mVcJb0L3W1V+LfdRfH82XtyM+dDjXsy6tmr4ErV/flc1vyFmzZtHMmTOpsrJSKQBeqOQ8cYJu3u5un67iFHTnbRXxCLrXduVtKZdRbTuC7ZsBABIABL1pQNBBsgnawYc9vL+q49CcbPxys03SnYJ+8uRJ8VifMaX08vul9PmGL5XbCYJ9lNyJLrjySZgxBV3DNmVG27ZStoXIe8/9jibo6nXN12Je8lHHvQ1T5COk+/xzJmj9+q7splzF5YmOD7rkPJGCrguwtqOy0CqkmNdzCfgL0m3XSLcPQddwb1c9N15exrzqi7Ud7bnlEXOxTQg6SCAQ9KYBQQfJht/Pct1mQv2qjkNzI0u6LOj8Q0Z/en+B+DGiypWrqLY25G2CPDc8KMp11R8WgE7Q+m0RQV9QmEtvvdrNxbKSPOXysXAJuiHAtikhUUat5QNjn0YiPS7k2C3j6vsMofbcLmN/bl7fth/mhwwTm/AD0HQg6E0Dgg6SDb+f5brNhPpVHYeWwJT0XmPK6f1ZFeIn//l2kSbrFy5cUK4TLoxRbM+R+2h4rQtBj0bQ+m0RQQcAJB8IetOAoINkw+9nuW4zoX5Vx6GlMCXdPAGUr+CiWi5siCk1/N6JQ86jrwtBj0bQ+oWgA5AhQNCbBgQdJBt+P8t1mwn1qzoOLQn/BgxfwUX1GABBCFq/EHQAMgQIetOAoINkw+9nuW4zoX5VxwGAMBK0fiHoAGQI+Kn/puEl6PpXvtGv6+tnmURjfRVtozlfg/PrbWOeqscl3EBwgnbwYQ/vr+o4ABBGgtYvBB2ADIEbiNzc3EANRNjD7VXLCLqG13xO43JkSRF052syroccz9zT2DTz/FP5x04ylKAdfNjD+6s6DgCEkaD1C0EHIEPgBgKCHj/RBD07J8fzcmXiesTZ2drjKSDoTIxrH8cPBL25CdrBhz28v6rjAEAYCVq/EHQAMgRuICDo8RNV0I0f5nDLqfFT2FUsxQ5Bt0bWDWwyHZFda4ReQ96+UsClaxN7CrrrMfmHUEz054/cp349ql8RjLxGtbDbfkBFft4ox8P2nFEfc3xIMr8xMAj7j6EE7eDDHt5f1XFINss/XU0TZy1UPgaAF0HrF4IOQIaAk0SbRnRB1yRUNcJr3ifk0y7o1QU50m2nJOtyy38b6z4hm9I2xG27kAr5NeTVLuF29FF987X6F3Tb6zHvs57DKeTO26acS69ZOy4FxvaiHw8NxfF17qNtv5zHXHqusMLvZ7luTdI1vL+q45AsdmoelD1sEWV1XUu3dFtFL+RB0oF/gtav78q+evWqkPQdO3bQV199pRQAAEDqAkFvGjEF3UOyxW2FoDuJbIdvO+U3cl9k+1GeT7vdLILu3J7tQ4K+jLeg8/NEPwYy9uOh4RR0cUwdI+bycygfDzdBO/iwh/dXdRxampMnT1H3d8uFlP+vASto6txFNKNoMf2Xbqsh6cA3Qes3cGU3NjaKJ1IJAAAgdYGgN43Ygm6IrymxsiB6CLqQaOnv4C236vtsEu4Q2OYQdPvr0bDtl3MZx23FiL8T7+Oh4RR0sT378ib669afn2+7XndICdrBhz28v6rj0FJcvHiRhn9QRv+/F6vov2kynju5lPbt328BSQdBCFq/EHQAMgQIetPwI+jyCK7tfpeg61IsC7R9OyohVtzH2zWk1b6+IbtKQXdup6mC7nMEPaqgxzoeGkpB9zNCbmzbtY/hI2gHH/bw/qqOQ0swfd4i+h+9q4SAd3mnnLZt32GT85aQdFcNgFATtH59V7ZziovqyQEAqQsEvWn4E3TzdoEl6uJ+p6Ar5NK+HZUQe93H2418MDAf4+0pBd313Pp27fLqlHbVc2vYpNm5jOO260OKRMzjYSwjC3q07SmwfbsRUoJ28GEP76/qODQnlSs+o38cslxMZ/m31yvoszXrlWJusmfPXuozpkzMS59bukS5zXhx1UAsnDUCUoqg9eu7sp0niaqeHACQukDQm4ZfQdfFUTuusgw6ZVIp7FHk1vM+XTyzNUl3dswqQReSqpBasay0vritvR6noNvX1SXe+zW7X6++XUnEteMgTtyMeTzM+9wSb99v7TlzjNva8vKHDtXxCBv8fjZrViZdw/urOg7NxYdzFgrR/qdBlVRUXqkUcpmSikpq/adP6Gf9VlKnt8qpfMkK5Xbjhd+zznqPCgQ9pQlavxB0ADIECHrT8C3ohpjaRqSdAqqhy7LxN9DE0b4dt9yq79MQ23ZP3xBCam7fxLPzjkwDYXKqnPtgPrd+OUlzueivT/167a8rckyiH4/I9szHXfcZWK/ZOC7WY2kgLvx+lvfVJF3D+6s6Ds3F65NLxbQWPiGUR8ZVUs7wZRaf1IT8v3b7TMxLP3jwIE2aVUEVS1cqt+sXW22oasD5npY+cLrq3XwsyjqgZQlav6EW9C83bqK3es6n3GdLaPVna5XLAAB0IOhNw0vQk47ogO0jy4lHLdugZeH3s1y3mVC/quPQXIyZXk5TPl5Efzd4hVLSN3y5iQa+VyrmnHd/p0zMS79y5YpyW0ERgi1/iFR8ixTPpUhjrgNajKD1G0pB37N7D40bVkz97yujCcOL6INRxTTot+X07pAi2rx5i3IdADIdCHrTSE1BN0aQm31UDIKeCvD7Wa7bTKhf1XFoLljQixdW0pat22ySziI+sqBMXMmlw39W0Iqq1VRTU0O1tbW0b98+6t27Nz366KM0YcIEun79unLbUREfstVTz6LVnOtxH1NcYm0TNB9B6zdUgn706DGaMkYX8zEvFYlR8/3ap1pm7Zr1lP9GEQ24dxG9nzuPDh06pNwGAJkKBL1ppJqgW19pt8hX1hD0VIDfz3LdmqRreH9Vx6G5MAWd5duU9MffqKC/GbBS/LuofCmdOHFCPH727Fkh4x06dKBBgwbRvHnzqE2bNjRt2jTltqMiRsvd34KpZNqqewM/gh51HdBiBK3fUAg6X4t0ztRSGvTbMhrerYiWLl5hibmTqpWrKa+/LvHT8kvo9OnTym36wfmmZoJ/NeSnY0vUMm5c+4D5ZxnL3LlzqVOnTtSqVSu68847be+LdA23V2k/xQVkDEE7+LCH91d1HJoLFnSWcBZwZtWa9eKHiUZNK6Njx45Z9zOXLl2i3bt301//9V8Laef1p0yZQv369XNtNya+BN04T0Tqw+2Pa7gE3cc6oMUIWr+hEHSWbh4Zf6VjSVQ5N1m5/DN67ZlisQ4vr9qmH4TcykIrisj9NVR0kiXo+vJOIa8qiP71ly88PqWD1Cc3N9fVOERrIMIebq8g6CBdCNrBhz28v6rj0FwsWV5FvcaU06bNW4SE88mfz+ctFP+X5fzChQti+ZKSEiHoGzduFOTl5dFzzz1HR48edW07KsopLo4+XyHxMQXdzzqgxQhav6EQdJbsqePni/nmPDI+vEsxlcxbJOaGyWJeXvKJGD1nMR//2jyaMrY4sYIe1wkWSRJ0jzltCQGCHlog6PEDQQfJJmgHH/bw/qqOQ3NStLDSknSVoPP93377LZWWlgo5V9GuXTvltr0xBtSkftW8qpHV5zv7dCHfDidwCrmfdUCLEbR+QyPo0yeWiOLgr5Sm5pfQkAfLaVinYpo9tZTmFpZTbmf9RFE+YXTr1m1iWV4n8YIuS69K2PVCi9wXEWuxPfOPYhPcYMtEnst4jebytk/K/j5M2C5tpmHfvvmc5qXV+HrLkWUFjhF6kNpA0ONn7YXEXK0BgHior68P3MGHPby/qmPR3JiSvvKzNZag81VcJs2uELf37z9AM2bMoB49etDx48dtrFy5Uki6arvR0ftb829q+oDcJ8dzKdLY64CWImj9hk7QTaqrq2nujHL602OllPNwGRV+WEoHDti/hkq0oDtvBxF0/iO47rO25X8ZubCcr0cUYrRP4A7E+gqpjyxvvi7HSDxG0EPJunXrqEuXLnTXXXfR7bffLt4bJukabq8SJeifnb+sPK4AtBRBO/iwh/dXdRxaApb0LqPKhZDzpRe7v1tGo6eVC8/gxxMv6CDdCVq/viubhXfWrFk0c+ZMqqysVD55c6ESdJN5heUC1WMJEXTbgXROGQkg6Dax17B9FeV/GUuexVdXslwz/Hocr1Esp79+m6h7TYHx+7og6KEDV3FpGhB0kGyCdvBhD++v6ji0FCzpLOgvv19Kn2/40vYYBB0EJWj9Bq7sxsZG5RM3J0kVdJucOkeY/Qu6axTbJshxLCNE2v2HZuyvx8Bc3twfm4hL+HldEPRQAkFvGhB0kGyCdvBhD++v6ji0JHzJZr7eufN+FvSnn35aCLnM9OnTIehASdD6haBHwS3ozmkkTRV0j9FxP8t4CXY0ZPmGoGccEPSmAUEHySZoBx/28P6qjkMqsGzZMiHiKvhytqp1QGYTtH4h6FGILehOGWec0u5HcuNYxibSfpFem9f6gV8XCAsQ9KYBQQfJJmgHH/bw/qqOAwBhJGj9+q5s/ponJyeHhg4dSpMnT1Y+eXPBks2XTDxy5IhLwr0EneeCJfwyi0Jq7cIqlpFkVdzWlnEKun3+unOqjP9loj23WCbHuM2vVfXhQho1d68f4MNF0NF7kHQg6E0Dgg6STdAOPuzh/VUdBwDCSND69V3ZybyKC581zddAH/9aEZUWLxYfFkwRdwo6S/zi8krKN5bftXOXcpt+MGVbxj5azuhSG3lcl1q35JqXKtSxS2+QZdz3mcszkee1vy6BYtTbuY/2/VM9Z+R+sY7jQwBIXSDoTQOCDpINv5/lus2E+lUdBwDCSND6DYWgM3ySxppV62jyO0U09uUiIeU7Nfk2BZ1/qGjBvEXisYkjisSvj5q/9gUAgKA3FQg6SDb8fpbrNhPqV3UcAAgjQes3NIIus3nzFpoxqYTGvKSPkufn6tI+5b359MX6DVRXV6dcD4BMBoLeNCDoINnw+1mu20yoX9VxSDZXr16lNz8spdzJpcrHAVARtH5DKegmPPVl3sxy+nhGeZOmsgCQCUDQmwYEHSQbfj/LdZsJ9as6DslkRtFi+h+9q+i/dqui/9JtNb2Qt1C5HABOgtZvqAUdAOCfTBX0bdu2AZAW8PtZrttMqF9VW5YMVlStoX8espR+0mUNPflWufjhIpZ1SDrwS9D6haADkCEcPnyYBg8eTHfccQfdeuutvhqIsGf06NHi6lNOOnfubLVnAISFe++911a36V6/vM+qtqwl2b5jJ/3f3ArK6rqWWr+8mBZXfkr79u+3gKQDv/D7OUj9QtAByCByc3MDNRDpmuHDhyuPAwBhJF2TTEE/duwY9Xq3XIyY/23/5fSRJuKymMskQtLdl2iWwG+PpAUQdACAJxB0PRB0kE6ka5Ih6OYJoP9Pz1X0//apopEFZUopd8KSfku3VTR0fHwnjlqXPFaJOAQ9LYCgAwCUZOIUF69A0EE6ka5paUH/bM066wTQfmNLaafmPSoZd7JwyUpq++oi+m/dV2vrlSu3HQsh6DkF6t8egaCnBRB0AICSTDxJ1CsQdJBOpGu4rVK1Zc3F83ll9JOua6h08XKliDv5bM16evbtck3oP6NhE0vFNJgx05si6FXGL3XLvyquAUFPC/j9HKR+A1d2Y2Oj8olbkq+++oomvlVEWzZvVT4OAHADQY8Egg7SiXRNSwv66Gnl9O+5i+hvBqwU8q2ScmbDl5soJ79UzDvv8k4Zfbl5i/gl8+KFlU0XdMe/BRD0tCDtBX36+yU0+LeLaNC9C6l/68VC1HnOmGpZAEAECDqCIGFKSws6y3VR+VIxvUUl6TzlZdTUMvpZv5XU4T8raEXVaiHmJokS9IaGKsrR2mXrhFEIelqQtoK+ZvU6eqXjAiHm/Muhu3btpiljimlQ24X00sNl9EnFMuV6AAAdCDqCIGFKMgSdJfvEiRMuSZ8+bxH9/eDl9HeDVwiJ52VkOU+soDdQdUG21jbnUBXfhqCnBc0m6PzmmzVrFs2cOZMqKyuVT94cnDp1isa+XEwD7yun3GdLqGrlKtqvFYvJhi820og++uMj+xVTdfVh5XbiQRSM40AqL4HUJKrFSSHRi8/PMgBEB4KOIEiYkixBZ9+RJZ1PAOUruuQXlovLL8pSbrJl6zbx0//5hfFdatE1rcXo98UJoxD0tKDZBD1ZJ4lOHFFEA+5dRHn9i21i7mTCcH25UUOKlNuJB1fBVBdQtnYwmyTpfgoNxQiaAQg6giBhCrdVqrasuRj3UbkYKTelmyX9928upBfyyunAgYM2ITfh0fXJsyvo+byFVDB3kVhHte1YuAVdQzhHNhUUwAnSAX4/y/1urP435QV9Wn4J5T6rj5AP+8MCWrZ0pU3M16xaR292KRZy/srjZTRlbLFyO/GgKhjxtVNTCgWCDpIEBB1BkDCF2ypVW9Zc8Ch4l1HlVKF5hing7xSUWaPqMkeOHKE5C5ZQ93fL6J1pZbR3337lNv2iFHTzfm6n4QShh9/Pcr9r4pWUF/TCyQuoonQpVa1cTcM66aL+7tAiMSd93KvzxJz0Pz1cRgu0T728HC+v2k48xBR0Y0TdOtC2Zc2vp6r06Snap+Bs8X/n8tLXWNp6VjFGWcZEn6MWWdb+eGQdeZvObYDMAYKOIEiYwm2Vqi1rTjZ+udkm6U5BP3nypHisz5hSevn9Uvp8w5fK7QTFS9DNE0Yh6OGH389yvxur/w2NoJvFMXdGOQ1+sEyMmPPVXD4YXWzNCWsJQZfvqy7Ika5V6jjr2hDk2NczVci3j2V06TZOIBHozx9Zxnx+x5ngztcDMgYIOoIgYQq3Vaq2rLmRJV0WdP4hoz+9v0D8GFHlylVUW1urXB8AFfx+lvvdWP1v6ASd2bNnL73ZvYi+3LjJdj8vt23bdtq3bx/17t2bHn30UZowYQJdv35due1YuAQ9huDy8i5Bdn4iToSgm/PSnK9DvD5T2lXPr9+X+BNdQRiAoCMIEqZwW6Vqy1oCU9J7jSmn92dViJ/859tFmqxfuHBBuQ4A0eD3s9zvxup/QynoBw8epDEvFYn/y/d/sX6DkPEOHTrQoEGDaN68edSmTRuaNm2actux0EepZdxS7FzGKeg28WYSIeg2EZewibvq+T1eE8gI1q1bR126dKG77rqLbr/9dtv7FkEQJNWSTEFnTEk3TwDlb+tVywHgh7QU9OLZC20i7iXox48fp927d9Nf//VfW2dST5kyhfr16+farh9cI+g2jHlh0uOqEXSXDEPQQRLJzc11NQ7RGggEQZBkJdmCzhw6dEhcwUX1GABBSDtBX7f2cxr7cpG4msvOnbuUgs7/X7/uC6qrq6OSkhIh6Bs3bhTk5eXRc889R0ePHlVuPxpRBV0hyS0m6NGmuFjrQdCBGwg6giBhSSoIOgCJIu0EneGvlWYVlApR59H07du2C0HnuegLFyyhca8Wi5Hz0tJSIecq2rVrp9x2NKIKulOShbDL8htF0G1i7yHoMZYRr80m8eqTVO3PD0HPdCDoCIKEJRB0kE6kpaCbbN++Q1y1hUWdBX38a0Xih4z410T58RkzZlCPHj3EVBeZlStXCkl3bi8WUQVdw3aZQ205XyPoxv3mOtFEOvoyxuszn1/DfvKn93bdrwlkAnPnzqVOnTpRq1at6M4777S9dxAEQVItEHSQLtTX1zefoPNUkmT81L8TnsaycvlnNPmdIlqyaLntMkeJFnQA0glcxQVBkDDFFPTzJ3cAEGr4fdxsgm6msbHR1umnEhB0ALyBoCMIEqaYgn5k5xwAQg2/jzNe0J9++mkh5DLTp0+HoIOMB4KOIEiYAkEH6QK/jzNa0JctWyZEXAXPvVWtA0CmAEFHECRMgaCDdIHfx80m6KlwkigAIH4g6AiChCncVnHbpRIeAMIEv4/5/Sz3u7H6Xwg6ABkCBB1BkDCF2ypuu1TCA0CY4Pcxv5/lfjdW/wtBByBDgKAjCBKmcFvFbZdKeAAIE/w+5vez3O/G6n8h6ABkCBB0BEHCFG6ruO1SCQ8AYYLfx/x+lvvdWP0vBB2ADAGCjiBImMJtFbddKuEBIEzw+5jfz3K/G6v/DbWgf7lxE73Vcz7lPltCqz9bq1wGAKADQUcQJEzhtorbLpXwtBTzX+A28pc0ulL9OONnmdjk0+jWWdT2jXzFY02HX2NzbRvEht/H/H6W+91Y/W8oBX3P7j00blgx9b+vjCYML6IPRhXToN+W07tDimjz5i3KdQAADZSbmxuogUAQBElWUkfQNV4Ypnz8SGV3aiva0YCCPv1RymrdnTZY90HQ0xl+H6e1oB89eoymjNHFfMxLRWLUfP/+/YK1a9ZT/htFNODeRfR+7jw6dOiQchsAZDIQdARBwpJECfo3WwqV9/tBiO0Lj2oS/ijNVzy+4Y1faqL9S+1xCDrwht/HaSnoFy9epDlTS2nQb8toeLciWrp4hSXmTqpWrqa8/rrET8svodOnTyu3GYTqgmzHAc2hKsVy0ammgmxt3ewCqlY+LqMvm11QrXhMpypHfj0aOVXK5ZqHKsrRnjOnSvVYPOj7m7jtJYrYf4dEwX9P83nE37aZ/p4QdARBwpJECPqONR9S2zb3UPfnOyofj4UutsM85HkY9WIxn86j6G5Bt0bfBRHBt9+vIUbnI4IuP66SavGhQFpftYztObTt6/shLccfEKRt9JpuXx8kFn4fp6Wgs3TzyPgrHUuiyrnJyuWf0WvPFIt1eHnVNv2hlmpT2JtPKKOJofGaHAJXVeBH/GNQlePrAwQLZKL2Xf7wA0E3n0d/3kQfj3Xr1lGXLl3orrvuottvv9067gyCIEiqpamCbso5t3mdHntQuUwsLLF1jXhrmPeJaS52QReCLE2L0UfapfU9RtC5PbZkWUi0Yru20Xz+kGCXb7GM87nkZZyvV7s9GoLerPD7uNkEnaeM5OTk0NChQ2ny5Mm2jr+5YcmeOn6+mG/OI+PDuxRTybxFtGfPXpuYl5d8IkbPWczHvzaPpowtbpKgi5FMD2HVxTKekXQ/RBHD6gLKzsqmgmrH/YnAj6Dz8/v6FsAH/HziGDaPkDadZAm6RiKPswFOEkUQJExpiqDLcp4QQTdEODLSrAu1uK0QXveUGGO03VzGS9Btc90d014UHwQEQsCN5/NYJrIf5jLqKTugeeD3cbMJupnGxkZbp98SsGRPn1hCNTU1tHv3bpqaX0JDHiynYZ2KafbUUppbWE65nfUTRfmE0a1bt4lleZ34BT3WNA75cdWyTulUy55z+oy+vHNZ/bYus/6mlzi3a39ec/tVxnazNRmMLCvwmGLB240qrCzdgadnOI+VN9H2Szk1xPoQIC1jrS9/wHIfk4Jq599BJ/qx1RAfoiKPq46H7XVoj7sEXbyexH4Qg6AjCBKmxCvoTjlPjKAbo+CmQMuS65RiY8RahW10XCHolkSr7pNFXEZ+fo9lbIJufhjQXo/9+UBzwe/jtBd0k2pNnubOKKc/PVZKOQ+XUeGHpXTgwEHbMk0SdCFZ0UfII1IVn6Droic9h/acBQpBFzInjaaagugSQwNd/uTXrr++yPL69nUJjawXewTduU8KmlHQY+6XQ8bNdWzHUXpt4jha+6s6Jva/g7WNqMeWt5sjbcP93hDbkI+zeN32bZjLxTomQYCgIwgSpsQj6Co5T5Sgy6Pg7hFpp6DHGKFOqqCb6N8KcB+AOejNC7+PM0bQTeYVlgtUjzVJ0BWy5yQifPEIOq/jNUIaWdYl8SbSKK1N7MT9iu3a9seQUadI8zIxBT3GqC5vozkE3dd+Of8O0jFWfuCS/waqYxL5O4jbvl6DG36fxNqGbRkD/ts772sKEHQEQcKUeAT9iY4PuuQ8cYJu3u5un67iFHTnbRXxCLrXduVtKZdRbTuC7ZsB0Czw+7jZBJ2Fd9asWTRz5kyqrKy0dfzNTSoLui5QcQh61O0by2oyHOs16NvR/simWHpt1yaGjtdiwutGFXTeT8W2zdegwpesO4+VAl/7JX9o0m7L+xPlNerPqzomPv9mCukWr0N6jljbgKAjCILYE4+gLyjMpbde7eZiWUmecvlYuEaehQBr7aYstAop5vVcAv6CdNs10u1D0DXc21XPjZeXMa/6Ym1He255xFxsE4LerPD7uNkEPZlXcUmKoCulW0Z+vHkEPUsTdB4l934NBrIg+pJIlYxq8LqpOoLua780pH2wSa/X+haqY+K4z9dr0N8L8jHw8zog6AiCIPZwW8Vtl0p4WgqXoBsCbJsSEmXUWm5n7dNIpMeFHLtlXH2fIdSe22Xsz83r2/bD/JBhYhN+0Bzw+5jfz9Yxl/AKBD0KYhTUQ1jtU09UgumUdofsKUZdI0jLCqGLIcXyc3ltVxJXtYw6l1HB68V4LbyN5hB0X/vF8LHg5fj/kghHPd6M6pg47vPzGvjfDgG3ybdyG+q/B68X9ZgEBIKOIEiYwm0Vt10q4QEgTPD7mN/Pcr8bq/8NjaDzJROPHDniknAvQT9+/HiTL7NojYY6pFWXc7tkOWVe3NbW9RR0axm7RKpOErU9HwueQ4DtHxbcryXmhwUThVw6iTmq21yCrhF7v3TEa+TpQY7X4V5fe94c87bqmLjvi/kanAIujqm8DX2b8jb0v5/quRUfBpoABB1BkDCF2ypuu1TCA0CY4Pcxv5/lfjdW/xsKQeers/A10Me/VkSlxYvFNdlNEXcKOkv84vJKyjeW37Vzl3KbQdBF2olTngyZN8ip0kUslhTbt21u00MMxXbtzyOwCaNqu06JVb8WSx55HS/JZgFVPF/TcB4rb6Lvl4GQZNVj0v651lcdE/VxivUaTOEWaMeRl1dt11yGH3Mt0wzHGYKOIEiYwm0Vt10q4QEgTPD7mN/Pcr8bq/8NhaAztbW1tGbVOpr8ThGNfblISPlOTb5NQecfKlowb5F4bOKIIvHroxcuXFBuKxHIEuZHLNMJlslM2+eWpjmOMQQdQZAwhdsqbrtUwgNAmOD3Mb+f5X43Vv8bGkGX2bx5C82YVEJjXtJHyfNzdWmf8t58+mL9Bqqrq1OuBxKFemoJSAxihD7wNKHY4Kf+EQQJUyDoIF3g93FGCLoJT32ZN7OcPp5RnpCpLACkO7m5uYEaCARBkGQFgg7SBX4fZ5SgAwCCAUFHECQsgaCDdIHfxxB0AIAnEHQEQcISCDpIF/h9DEEHACjBSaIIgoQp3FZx26USHgDCBL+P+f0s97ux+l/fPTNf2tDs3Dt27Ejr16+3df4AgNTlq6++oieeeMKqYQg6giCpHm6ruP1SCQ8AYYLfx/x+lvvdWP2v75756tWrVufOFBYW2gQAAJC6VFVV2er3jjvu8NVAIAiCJCvcVnH7VX/jGgChht/H/H6W+91Y/W+gnvmRRx6xOvjXXnvNJgAAgNSFP1Cbtcv82Z/9ma8GAkEQJFnhtkrVngEQRvj9LPe7sfrfQD3zgAEDrA6eZZ1/PEj1IgAAqUX//v2t2n3ggQfolltu8dVAIAiCJCvcXqnaMwDCCL+f5X43Vv8bqGcuKiqyOnmGvzZXvQgAQOpw8OBBW93+0z/9k+8GAkEQJFnh9krVpiWDLzduord6zqfcZ0to9WdrlcsAEA1+Pzv73mj9b6Ce+ejRo7aO/sknn8QoOgApDk9Hk+v2z//8z303EAiCIMkKt1eqNq0l2bN7D40bVkz97yujCcOL6INRxTTot+X07pAi8avmqnUAUMHvZ2ffG63/Ddwz83WU5c6eL92meiEAgORTUlJiq9ff/OY3gRoIBEGQZIXbLFW71hIcPXqMpozRxXzMS0Vi1Hz//v2CtWvWU/4bRTTg3kX0fu48cZU71TYAkOH3c5D+N3DPXFNTYztZlKmoqFC+GABA8uBvt5y1qho9j9ZAIAiCJCvcZqnatubk4sWLNGdqKQ36bRkN71ZESxevsMTcSdXK1ZTXX5f4afkldPr0aeU2/VCV426Xc6rUy3pTTQXZWZRdUK14zCRRy7hx7UMOpkHL8PvZdnwMvBJXz1xWVmZ1+DzN5fjx48oXAwBILvLlFf/xH/9R2Tj8y7/8i1HZCIIgqRNut1TtWnPC0s0j4690LIkq5yYrl39Grz1TLNbh5VXb9IOQW1loq3K09jmbCqrty0UnWYKuL+8U8qqCAqqWbscFH4fsBGwnBeD3s6oP9krcQ2ejR48Wo3M7d+6kmzdvWi9g27ZtEHYAksCFCxeosrJSnBTKt7ku7777bvq7v/s7+j//5/+4rtwSq3FAEARJZpIh6CzZU8fPF/PNeWR8eJdiKpm3iPbs2WsT8/KST8ToOYv5+Nfm0ZSxxYkV9IYqytHa52Cj6EkS9OoCyg78YcInEPT4wj//b6axsVGIufmVes+ePWno0KHi+ssqWCbMF83rqZZRsW7dOtsO8xxb1XIq5PVYYlTLqDCFx0S1jAqWJXk9fu2q5VTg+EQHxycC15l8GUWuvXHjxtFPf/pTqwH4yU9+YmsQTDB6jiBIqiZZgj59YomYzrt7926aml9CQx4sp2Gdimn21FKaW1hOuZ31E0X5hNGtW7eJZXmdxAu6LL0qYddFOnJfRKxt001sghtsmchzGa/RXD4rh6qsx/x9mKguyJbWd27ffM4q8X/+9iBb/F8i5FNmWlTQnXGeQBoNeZSdR91Vy6hwnpT6zDPPKJdTIa/H8qNaRoVTlFTLqGBxktfj165aTgWOT3RwfKLjNddc5rbbbjMqF0EQJPXCbZncBrYEsqCbVFdX09wZ5fSnx0op5+EyKvywlA4cOGhbJtGCrhZ2f4LO7bvrPmtb/peRBdr5eoRsS1JvyrdT6k10uXdLfWR583U5RuIxgt70nD9/3iYIsWjbtq1Fu3btlMuoaN++vW1d1TJeyOsFeU5eVl5XtYwX8nr82lXLqJDXw/FxI6+H4+Pmb/7mb5QNgQyCIEgqh9syleg0JypBN5lXWC5QPZYQQbe10c4pIwEE3Sb2GmI+uynH/pex5FlMYZHlmuHX43iNYjn99dtE3WsKjN/XBUFveq5evUqrV6+mt99+m3JycqLKCI/emS/ujjvuUC6jwnmiW+vWrZXLqZDX+/nPf65cRgUvK6+rWkZFq1atbOvxa1ctpwLHJzo4Pu5l//mf/5n+8i//km699Vbbek4wco4gSBjCbZtKdJqTpAq6TU6dI8z+Bd01im0T5DiWESLt7ksY++sxMJc398cm4hJ+XhcEvfnCc9JVLwgA0PJgzjmCIGFJZgu6cxpJUwXdY3TczzJegh0NWb4h6IKUE3Qzjz/+uG3UEwDQcvAHZQRBkDAFgi4LulPGGae0+5HcOJaxibRfpNfmtX7g1xVuUlbQEQRBEARB/CZZgs6XTDxy5IhLwr0EnS9akPDLLAqptQurWEaSVXFbW8Yp6Pb5686pMv6XifbcYpkc4za/VtWHC2nU3L1+gA8XQUfvUxQIOoIgCIIgoU8yBJ2vzsLXQB//WhGVFi8WP+NvirhT0FniF5dXUr6x/K6du5Tb9IMp2zL20XJGl9rI47rUuiXXvFShjl16gyzjvs9cnok8r/11CRSj3s59tO+f6jkj94t1HB8CwgYEHUEQBEGQ0CcZgs7U1tbSmlXraPI7RTT25SIh5Ts1+TYFnX+oaMG8ReKxiSOKxK+Pyr/NAYAKCDqCIAiCIKFPsgRdZvPmLTRjUgmNeUkfJc/P1aV9ynvz6Yv1G6iurk65HgBOIOgIgiAIgoQ+qSDoJjz1Zd7Mcvp4RnmTprKAzAWCjiAIgiBI6JNKgg5AU4GgIwiCIAgS+kDQQToBQUcQBEEQJPSBoIN0AoKOIAiCIEjoA0EH6QQEHUEQBEGQ0AeCDtIJCDqCIAiCIKEPBB2kExB0BEEQBEFCn1QS9C83bqK3es6n3GdLaPVna5XLABANCDqCIAiCIKFPKgj6nt17aNywYup/XxlNGF5EH4wqpkG/Lad3hxSJHzFSrQOACgg6giAIgiChTzIF/ejRYzRljC7m/CuiPGrOP/HPrF2znvLfKKIB9y6i93Pn0aFDh5TbAEAGgo4gCIIgSOiTDEG/ePEizZlaSoN+W0bDuxXR0sUrLDF3UrVyNeX11yV+Wn4JnT59WrnNIFQXZDsELoeqFMtFp5oKsrV1swuoWvm4jL5sdkG14jGdqhz59WjkVCmXA9GBoCMIgiAIEvokQ9BZunlk/JWOJVHl3GTl8s/otWeKxTq8vGqb/lBLtSnsOVXysokkmqAbr8kh5FUFfsQ/BlU5Pj9ApA8QdARBEARBQp9kCDpL9tTx88V8cx4ZH96lmErmLaI9e/baxLy85BMxes5iPv61eTRlbHGTBF2MUnsIqy7p8Yyk+yGKoFcXUHZWNhVUO+5PBBB0C69A0BEEQRAESbkkS9CnTyyhmpoa2r17N03NL6EhD5bTsE7FNHtqKc0tLKfczvqJonzC6Nat28SyvE78gl5FOZqoeY+Sy4+rltUlO3KfWrqd02f05Z3LGqPm4gNBrNel49yu/XnN7VcZ282mbPF/iQyZMgNBRxAEQRAk9Em2oJtUV1fT3Bnl9KfHSinn4TIq/LCUDhw4aFumSYIuRqqjj5DzCLsuvvEJumsUXnvOAoWgO0fyTfm2S3cEfX66/Nr11xdZ3hR+x0g8RtAtvAJBRxAEQRAk5ZIqgm4yr7BcoHqsSYLOsupD0PWR5ngEndfxmqoSWdZzKo34AKHLpE3UvabA2PbHEHTnKDkE3cIrEHQEQRAEQVIuEPQITRpBj7p9Y9lsDzmXEduRZNtruzZxd7wWEwi6hVcg6AiCIAiCpFwyRtCV0i0jP948gp6lCTqPknu/BgNZviHogYCgIwiCIAgS+mSOoLvnfsvYp544ZZxxSrtDir2mojiXFcLttZyJ9FzRprhY+wJBN4GgIwiCIAgS+iRL0PmSiUeOHHFJuJegHz9+vMmXWTTF1ymtupzbJdgp8/qJmlEE3VpGGu3W5Fp1kqjt+VjAHXPHnfPU3R8sYnxYMPEafU9jIOgIgiAIgoQ+yRB0vjoLXwN9/GtFVFq8WPyMvyniTkFniV9cXkn5xvK7du5SbjMIpmzbcY5SGzJvkFOlS3AsKbZv29yml8zz9uzPI1CMejtfc+R1MB6Cbtwv1sFlFpWBoCMIgiAIknJJhqAztbW1tGbVOpr8ThGNfblISPlOTb5NQecfKlowb5F4bOKIIvHroxcuXFBuKxHoo9a6zNnlF4QJCDqCIAiCIKFPsgRdZvPmLTRjUgmNeUkfJc/P1aV9ynvz6Yv1G6iurk65HgBOIOgIgiAIgoQ+qSDoJjz1Zd7Mcvp4RnlCprKAzAOCjiAIgiBI6JNKgg5AU4GgIwiCIAgS+kDQQToBQUcQBEEQJPSBoIN0AoKOIAiCIEjoA0EH6QQEHUEQBEGQ0AeCDtIJCDqCIAiCIKEPBB2kExB0BEEQBEFCn1QS9C83bqK3es6n3GdLaPVna5XLABANCDqCIAiCIKFPKgj6nt17aNywYup/XxlNGF5EH4wqpkG/Lad3hxSJHzFSrQOACgg6giAIgiChTzIF/ejRYzRljC7m/CuiPGrOP/HPrF2znvLfKKIB9y6i93Pn0aFDh5TbAEAGgo4gCIIgSOiTDEG/ePEizZlaSoN+W0bDuxXR0sUrLDF3UrVyNeX11yV+Wn4JnT59WrlNv1TlOOQtp0q5HAgnEHQEQRAEQUKfZAg6SzePjL/SsSSqnJusXP4ZvfZMsViHl1dtMzbVVJDtFvKqggKqlm5HpSqHsrIDLA9aHAg6giAIgiChTzIEnSV76vj5Yr45j4wP71JMJfMW0Z49e21iXl7yiRg9ZzEf/9o8mjK2OH5Bry6g7KxsKqhWPOYXCHrKA0FHEARBECT0SZagT59YQjU1NbR7926aml9CQx4sp2Gdimn21FKaW1hOuZ31E0X5hNGtW7eJZXmd+EfQqyhHE7WcKtVjEexTYHKoSnm/hhiJV21TH6mP3Kffzi6otm8Dot8sQNARBEEQBAl9ki3oJtXV1TR3Rjn96bFSynm4jAo/LKUDBw7almmaoDdQdUG2kDWWZdXjQqClKTBieVmkXSPo/gWdn9d1H+a/JxwIOoIgCIIgoU+qCLrJvMJygeqxpgq6QEx10aXNJuri/siIuQ4LuDQtpimC7pRx3pbr+UBTgaAjCIIgCBL6ZJygmwhBlsTZvK3Aku0mCLpr1D4Rc+KBCwg6giAIgiChT8YKOiNLsp8R7YQLOkbQEw0EHUEQBEGQ0CejBV0WbD8j2i5Bd8o445R2D0F3bQskAgg6giAIgiChT7IEnS+ZeOTIEZeEewn68ePHm36ZRcc8cP2kUceVWpwCniPdVoyyO9cxr9TiFPQsm/zrEu91siqIHwg6giAIgiChTzIEna/OwtdAH/9aEZUWLxY/42+KuFPQWeIXl1dSvrH8rp27lNuMjS7FNnFzjWCbMh3BPjouPW7Jvn27OVX6Mu4R9CrbtiHnzQMEHUEQBEGQ0CcZgs7U1tbSmlXraPI7RTT25SIh5Ts1+TYFnX+oaMG8ReKxiSOKxK+PXrhwQbmt1MYUdAh5SwBBRxAEQRAk9EmWoMts3ryFZkwqoTEv6aPk+bm6tE95bz59sX4D1dXVKdcLBxD0lgSCjiAIgiBI6JMKgm7CU1/mzSynj2eUN2EqS6oBQW9JIOgIgiAIgoQ+qSToADQVCDqCIAiCIKEPBB2kExB0BEEQBEFCHwg6SCcg6AiCIAiChD4dO3akixcvKmUHgLABQUcQBEEQJPTp2rUrHT58WCk7AIQJvnRnhw4dIOgIgiAIgoQ7OTk5tG3bNqXwABAm+Ndm/+3f/g2CjiAIgiBIuDN9+nT6+OOPlcIDQJioqqqif/3Xf4WgIwiCIAgS7uzatYuGDh2qFB4AwsSoUaPo5z//OQQdQRAEQZDwp1evXnTw4EGl9AAQBk6fPk2PPPII3XLLLRB0BEEQBEHCny+++IJef/11pfgAEAYmTZpEd911l1LOGa9A0BEEQRAESdnk5ubSunXrlPIDQCqze/ducXKo1+g54xUIOoIgCIIgKZv6+npMdQGhg6/cwtfyv/XWW5VizvzP//k/jXe5OxB0BEEQBEFSOjU1NTRgwACMpINQwB8mO3XqRLfffrtSzE2iBYKOIAiCIEjK5+rVq2K6y4gRI8SJdyoxAiCZXLhwQcw5f/jhh+m2225TSrkJPx4tEHQEQRAEQUKT1atXU+fOncXJo5WVlZj6ApIK/9otX+ecPzg++uij4oTQaHPOTWIFgo4gCIIgSKjC89L5Ci+jR4+m7OxsevDBBwFICvz+4x8h+tnPfkY/+clPlDLuxE8g6AiCIAiChDZ9+vRRShAAqcjjjz9uvHOjB4KOIAiCIEjo89Of/lQpRACkCkECQUcQBEEQJC3Co+mxTs4DoKX54x//aLxD/QeCjiAIgiBIWobFqF27dgC0KH6nsUQLBB1BEARBEARBUigQdARBEARBEARJoUDQEQRBEARBECSFAkFHEARBEARBkBQKBB1BEARBEARBUigQdARBEARBEARJmRD9/wGf6zDDNv69eQAAAABJRU5ErkJggg==;" vertex="1" parent="1">
          <mxGeometry x="321.04" y="270" width="487.05" height="315.53" as="geometry" />
        </mxCell>
      </root>
    </mxGraphModel>
  </diagram>
  <diagram id="5NboB9744E0_jNUNajeM" name="1">
    <mxGraphModel dx="2867" dy="1611" grid="1" gridSize="10" guides="1" tooltips="1" connect="1" arrows="1" fold="1" page="1" pageScale="1" pageWidth="827" pageHeight="1169" math="0" shadow="0">
      <root>
        <mxCell id="0" />
        <mxCell id="1" parent="0" />
        <mxCell id="8-oNCAQ-rwSviOGRKuBR-1" value="1" style="ellipse;shape=doubleEllipse;whiteSpace=wrap;html=1;aspect=fixed;strokeColor=#9999FF;" vertex="1" parent="1">
          <mxGeometry x="125.50000000000004" y="70" width="66" height="66" as="geometry" />
        </mxCell>
        <mxCell id="8-oNCAQ-rwSviOGRKuBR-2" value="Class&amp;nbsp;&lt;div&gt;SortingAlgorithms&lt;/div&gt;" style="shape=callout;whiteSpace=wrap;html=1;perimeter=calloutPerimeter;position2=0;base=20;size=30;position=0.14;" vertex="1" parent="1">
          <mxGeometry x="188" y="40" width="163.04" height="60" as="geometry" />
        </mxCell>
        <mxCell id="8-oNCAQ-rwSviOGRKuBR-4" value="BubbleSort(int[] array)" style="ellipse;whiteSpace=wrap;html=1;" vertex="1" parent="1">
          <mxGeometry x="80" y="190" width="157" height="90" as="geometry" />
        </mxCell>
        <mxCell id="8-oNCAQ-rwSviOGRKuBR-11" style="edgeStyle=orthogonalEdgeStyle;rounded=0;orthogonalLoop=1;jettySize=auto;html=1;entryX=0.5;entryY=0;entryDx=0;entryDy=0;" edge="1" parent="1" source="8-oNCAQ-rwSviOGRKuBR-8" target="8-oNCAQ-rwSviOGRKuBR-10">
          <mxGeometry relative="1" as="geometry" />
        </mxCell>
        <mxCell id="8-oNCAQ-rwSviOGRKuBR-8" value="QuickSort(int[] array)" style="ellipse;whiteSpace=wrap;html=1;" vertex="1" parent="1">
          <mxGeometry x="74.5" y="350" width="157" height="90" as="geometry" />
        </mxCell>
        <mxCell id="8-oNCAQ-rwSviOGRKuBR-12" style="edgeStyle=orthogonalEdgeStyle;rounded=0;orthogonalLoop=1;jettySize=auto;html=1;entryX=0.5;entryY=1;entryDx=0;entryDy=0;" edge="1" parent="1" source="8-oNCAQ-rwSviOGRKuBR-9" target="8-oNCAQ-rwSviOGRKuBR-10">
          <mxGeometry relative="1" as="geometry" />
        </mxCell>
        <mxCell id="8-oNCAQ-rwSviOGRKuBR-9" value="QuickSort(int[] array, int low, int high)" style="ellipse;whiteSpace=wrap;html=1;" vertex="1" parent="1">
          <mxGeometry x="74.5" y="520" width="157" height="90" as="geometry" />
        </mxCell>
        <mxCell id="8-oNCAQ-rwSviOGRKuBR-10" value="Partition(int[] array, int low, int high)" style="ellipse;whiteSpace=wrap;html=1;" vertex="1" parent="1">
          <mxGeometry x="294" y="440" width="120" height="80" as="geometry" />
        </mxCell>
        <mxCell id="8-oNCAQ-rwSviOGRKuBR-13" value="" style="endArrow=classic;startArrow=classic;html=1;rounded=0;exitX=0.482;exitY=-0.022;exitDx=0;exitDy=0;exitPerimeter=0;" edge="1" parent="1" source="8-oNCAQ-rwSviOGRKuBR-4">
          <mxGeometry width="50" height="50" relative="1" as="geometry">
            <mxPoint x="154.5" y="190" as="sourcePoint" />
            <mxPoint x="156" y="140" as="targetPoint" />
          </mxGeometry>
        </mxCell>
        <mxCell id="8-oNCAQ-rwSviOGRKuBR-14" value="" style="endArrow=classic;startArrow=classic;html=1;rounded=0;exitX=0.5;exitY=0;exitDx=0;exitDy=0;" edge="1" parent="1" source="8-oNCAQ-rwSviOGRKuBR-8">
          <mxGeometry width="50" height="50" relative="1" as="geometry">
            <mxPoint x="152.25" y="332" as="sourcePoint" />
            <mxPoint x="153.75" y="280" as="targetPoint" />
          </mxGeometry>
        </mxCell>
        <mxCell id="8-oNCAQ-rwSviOGRKuBR-15" value="" style="endArrow=classic;startArrow=classic;html=1;rounded=0;exitX=0.543;exitY=-0.027;exitDx=0;exitDy=0;exitPerimeter=0;" edge="1" parent="1" source="8-oNCAQ-rwSviOGRKuBR-9">
          <mxGeometry width="50" height="50" relative="1" as="geometry">
            <mxPoint x="110" y="490" as="sourcePoint" />
            <mxPoint x="160" y="440" as="targetPoint" />
          </mxGeometry>
        </mxCell>
        <mxCell id="8-oNCAQ-rwSviOGRKuBR-19" value="" style="edgeStyle=orthogonalEdgeStyle;rounded=0;orthogonalLoop=1;jettySize=auto;html=1;" edge="1" parent="1" source="8-oNCAQ-rwSviOGRKuBR-16" target="8-oNCAQ-rwSviOGRKuBR-18">
          <mxGeometry relative="1" as="geometry" />
        </mxCell>
        <mxCell id="8-oNCAQ-rwSviOGRKuBR-16" value="BubbleSort(int[] array)" style="ellipse;whiteSpace=wrap;html=1;" vertex="1" parent="1">
          <mxGeometry x="551.52" y="5" width="157" height="90" as="geometry" />
        </mxCell>
        <mxCell id="8-oNCAQ-rwSviOGRKuBR-21" value="" style="edgeStyle=orthogonalEdgeStyle;rounded=0;orthogonalLoop=1;jettySize=auto;html=1;" edge="1" parent="1" source="8-oNCAQ-rwSviOGRKuBR-18" target="8-oNCAQ-rwSviOGRKuBR-20">
          <mxGeometry relative="1" as="geometry" />
        </mxCell>
        <mxCell id="8-oNCAQ-rwSviOGRKuBR-18" value="int n = array.Length;" style="rounded=0;whiteSpace=wrap;html=1;" vertex="1" parent="1">
          <mxGeometry x="570.02" y="135" width="120" height="60" as="geometry" />
        </mxCell>
        <mxCell id="8-oNCAQ-rwSviOGRKuBR-23" value="" style="edgeStyle=orthogonalEdgeStyle;rounded=0;orthogonalLoop=1;jettySize=auto;html=1;" edge="1" parent="1" source="8-oNCAQ-rwSviOGRKuBR-20" target="8-oNCAQ-rwSviOGRKuBR-22">
          <mxGeometry relative="1" as="geometry" />
        </mxCell>
        <mxCell id="8-oNCAQ-rwSviOGRKuBR-20" value="for (int i = 0; i &amp;lt; n - 1; i++)" style="shape=hexagon;perimeter=hexagonPerimeter2;whiteSpace=wrap;html=1;fixedSize=1;" vertex="1" parent="1">
          <mxGeometry x="554.27" y="245" width="151.5" height="90" as="geometry" />
        </mxCell>
        <mxCell id="8-oNCAQ-rwSviOGRKuBR-26" value="" style="edgeStyle=orthogonalEdgeStyle;rounded=0;orthogonalLoop=1;jettySize=auto;html=1;" edge="1" parent="1" source="8-oNCAQ-rwSviOGRKuBR-22" target="8-oNCAQ-rwSviOGRKuBR-24">
          <mxGeometry relative="1" as="geometry" />
        </mxCell>
        <mxCell id="8-oNCAQ-rwSviOGRKuBR-30" style="edgeStyle=orthogonalEdgeStyle;rounded=0;orthogonalLoop=1;jettySize=auto;html=1;entryX=0;entryY=0.5;entryDx=0;entryDy=0;" edge="1" parent="1" source="8-oNCAQ-rwSviOGRKuBR-22" target="8-oNCAQ-rwSviOGRKuBR-20">
          <mxGeometry relative="1" as="geometry">
            <Array as="points">
              <mxPoint x="534.52" y="440" />
              <mxPoint x="534.52" y="290" />
            </Array>
          </mxGeometry>
        </mxCell>
        <mxCell id="8-oNCAQ-rwSviOGRKuBR-22" value="for (int j = 0; j &amp;lt; n - i - 1; j++)" style="shape=hexagon;perimeter=hexagonPerimeter2;whiteSpace=wrap;html=1;fixedSize=1;" vertex="1" parent="1">
          <mxGeometry x="554.27" y="395" width="151.5" height="90" as="geometry" />
        </mxCell>
        <mxCell id="8-oNCAQ-rwSviOGRKuBR-27" value="" style="edgeStyle=orthogonalEdgeStyle;rounded=0;orthogonalLoop=1;jettySize=auto;html=1;" edge="1" parent="1" source="8-oNCAQ-rwSviOGRKuBR-24" target="8-oNCAQ-rwSviOGRKuBR-25">
          <mxGeometry relative="1" as="geometry" />
        </mxCell>
        <mxCell id="8-oNCAQ-rwSviOGRKuBR-31" style="edgeStyle=orthogonalEdgeStyle;rounded=0;orthogonalLoop=1;jettySize=auto;html=1;" edge="1" parent="1" source="8-oNCAQ-rwSviOGRKuBR-24">
          <mxGeometry relative="1" as="geometry">
            <mxPoint x="721.52" y="565" as="targetPoint" />
          </mxGeometry>
        </mxCell>
        <mxCell id="8-oNCAQ-rwSviOGRKuBR-24" value="if (array[j] &amp;gt; array[j + 1])" style="rhombus;whiteSpace=wrap;html=1;" vertex="1" parent="1">
          <mxGeometry x="574.27" y="510" width="111.5" height="110" as="geometry" />
        </mxCell>
        <mxCell id="8-oNCAQ-rwSviOGRKuBR-29" style="edgeStyle=orthogonalEdgeStyle;rounded=0;orthogonalLoop=1;jettySize=auto;html=1;entryX=1;entryY=0.5;entryDx=0;entryDy=0;" edge="1" parent="1" source="8-oNCAQ-rwSviOGRKuBR-25" target="8-oNCAQ-rwSviOGRKuBR-22">
          <mxGeometry relative="1" as="geometry">
            <Array as="points">
              <mxPoint x="629.52" y="755" />
              <mxPoint x="725.52" y="755" />
              <mxPoint x="725.52" y="440" />
            </Array>
          </mxGeometry>
        </mxCell>
        <mxCell id="8-oNCAQ-rwSviOGRKuBR-25" value="&lt;div&gt;int temp = array[j];&lt;/div&gt;&lt;div&gt;array[j] = array[j + 1];&lt;/div&gt;&lt;div&gt;array[j + 1] = temp;&lt;/div&gt;" style="rounded=0;whiteSpace=wrap;html=1;" vertex="1" parent="1">
          <mxGeometry x="570.02" y="655" width="120" height="60" as="geometry" />
        </mxCell>
        <mxCell id="8-oNCAQ-rwSviOGRKuBR-33" value="QuickSort(int[] array)" style="ellipse;whiteSpace=wrap;html=1;" vertex="1" parent="1">
          <mxGeometry x="120.77000000000001" y="773.5" width="157" height="90" as="geometry" />
        </mxCell>
        <mxCell id="8-oNCAQ-rwSviOGRKuBR-34" value="QuickSort(array, 0, array.Length - 1);" style="shape=parallelogram;perimeter=parallelogramPerimeter;whiteSpace=wrap;html=1;fixedSize=1;" vertex="1" parent="1">
          <mxGeometry x="125.77000000000001" y="923.5" width="147" height="80" as="geometry" />
        </mxCell>
        <mxCell id="8-oNCAQ-rwSviOGRKuBR-35" value="" style="endArrow=classic;startArrow=classic;html=1;rounded=0;exitX=0.5;exitY=0;exitDx=0;exitDy=0;" edge="1" parent="1" source="8-oNCAQ-rwSviOGRKuBR-34">
          <mxGeometry width="50" height="50" relative="1" as="geometry">
            <mxPoint x="150.77" y="913.5" as="sourcePoint" />
            <mxPoint x="200.77" y="863.5" as="targetPoint" />
          </mxGeometry>
        </mxCell>
        <mxCell id="8-oNCAQ-rwSviOGRKuBR-36" value="Recursion" style="text;whiteSpace=wrap;fillColor=#FF0D05;" vertex="1" parent="1">
          <mxGeometry x="210.77" y="881.5" width="62" height="28" as="geometry" />
        </mxCell>
        <mxCell id="8-oNCAQ-rwSviOGRKuBR-37" value="№1" style="text;html=1;align=center;verticalAlign=middle;resizable=0;points=[];autosize=1;strokeColor=none;fillColor=none;" vertex="1" parent="1">
          <mxGeometry x="210" y="338" width="40" height="30" as="geometry" />
        </mxCell>
        <mxCell id="8-oNCAQ-rwSviOGRKuBR-38" value="№1" style="text;html=1;align=center;verticalAlign=middle;resizable=0;points=[];autosize=1;strokeColor=none;fillColor=none;" vertex="1" parent="1">
          <mxGeometry x="250.77" y="761.5" width="40" height="30" as="geometry" />
        </mxCell>
        <mxCell id="8-oNCAQ-rwSviOGRKuBR-40" value="№2" style="text;html=1;align=center;verticalAlign=middle;resizable=0;points=[];autosize=1;strokeColor=none;fillColor=none;" vertex="1" parent="1">
          <mxGeometry x="190" y="498" width="40" height="30" as="geometry" />
        </mxCell>
        <mxCell id="8-oNCAQ-rwSviOGRKuBR-44" value="" style="edgeStyle=orthogonalEdgeStyle;rounded=0;orthogonalLoop=1;jettySize=auto;html=1;" edge="1" parent="1" source="8-oNCAQ-rwSviOGRKuBR-41" target="8-oNCAQ-rwSviOGRKuBR-43">
          <mxGeometry relative="1" as="geometry" />
        </mxCell>
        <mxCell id="8-oNCAQ-rwSviOGRKuBR-41" value="QuickSort(int[] array, int low, int high)" style="ellipse;whiteSpace=wrap;html=1;" vertex="1" parent="1">
          <mxGeometry x="329.77" y="712" width="157" height="90" as="geometry" />
        </mxCell>
        <mxCell id="8-oNCAQ-rwSviOGRKuBR-42" value="№2" style="text;html=1;align=center;verticalAlign=middle;resizable=0;points=[];autosize=1;strokeColor=none;fillColor=none;" vertex="1" parent="1">
          <mxGeometry x="448.27" y="700" width="40" height="30" as="geometry" />
        </mxCell>
        <mxCell id="8-oNCAQ-rwSviOGRKuBR-47" style="edgeStyle=orthogonalEdgeStyle;rounded=0;orthogonalLoop=1;jettySize=auto;html=1;entryX=1;entryY=0.5;entryDx=0;entryDy=0;" edge="1" parent="1" source="8-oNCAQ-rwSviOGRKuBR-43" target="8-oNCAQ-rwSviOGRKuBR-45">
          <mxGeometry relative="1" as="geometry">
            <Array as="points">
              <mxPoint x="491.27" y="875" />
              <mxPoint x="491.27" y="977" />
            </Array>
          </mxGeometry>
        </mxCell>
        <mxCell id="8-oNCAQ-rwSviOGRKuBR-43" value="if (low &amp;lt; high)" style="rhombus;whiteSpace=wrap;html=1;" vertex="1" parent="1">
          <mxGeometry x="355.27" y="830" width="106" height="90" as="geometry" />
        </mxCell>
        <mxCell id="8-oNCAQ-rwSviOGRKuBR-48" value="" style="edgeStyle=orthogonalEdgeStyle;rounded=0;orthogonalLoop=1;jettySize=auto;html=1;" edge="1" parent="1" source="8-oNCAQ-rwSviOGRKuBR-45" target="8-oNCAQ-rwSviOGRKuBR-46">
          <mxGeometry relative="1" as="geometry" />
        </mxCell>
        <mxCell id="8-oNCAQ-rwSviOGRKuBR-45" value="int pi = Partition(array, low, high);" style="rounded=0;whiteSpace=wrap;html=1;" vertex="1" parent="1">
          <mxGeometry x="342.27" y="942" width="126" height="70" as="geometry" />
        </mxCell>
        <mxCell id="8-oNCAQ-rwSviOGRKuBR-46" value="&lt;div&gt;QuickSort(array, low, pi - 1);&lt;/div&gt;&lt;div&gt;QuickSort(array, pi + 1, high);&lt;/div&gt;" style="shape=parallelogram;perimeter=parallelogramPerimeter;whiteSpace=wrap;html=1;fixedSize=1;" vertex="1" parent="1">
          <mxGeometry x="310.77" y="1050" width="189" height="90" as="geometry" />
        </mxCell>
        <mxCell id="viKQmZKqDgBj0mPYjRE1-1" value="Yes" style="text;html=1;align=center;verticalAlign=middle;resizable=0;points=[];autosize=1;strokeColor=none;fillColor=#70FF45;" vertex="1" parent="1">
          <mxGeometry x="645.77" y="625" width="40" height="30" as="geometry" />
        </mxCell>
        <mxCell id="viKQmZKqDgBj0mPYjRE1-2" value="No" style="text;html=1;align=center;verticalAlign=middle;resizable=0;points=[];autosize=1;strokeColor=none;fillColor=#FF0000;" vertex="1" parent="1">
          <mxGeometry x="685.77" y="535" width="40" height="30" as="geometry" />
        </mxCell>
        <mxCell id="viKQmZKqDgBj0mPYjRE1-3" value="Yes" style="text;html=1;align=center;verticalAlign=middle;resizable=0;points=[];autosize=1;strokeColor=none;fillColor=#70FF45;" vertex="1" parent="1">
          <mxGeometry x="631.52" y="495" width="40" height="30" as="geometry" />
        </mxCell>
        <mxCell id="viKQmZKqDgBj0mPYjRE1-4" value="Yes" style="text;html=1;align=center;verticalAlign=middle;resizable=0;points=[];autosize=1;strokeColor=none;fillColor=#70FF45;" vertex="1" parent="1">
          <mxGeometry x="641.52" y="325" width="40" height="30" as="geometry" />
        </mxCell>
        <mxCell id="viKQmZKqDgBj0mPYjRE1-5" value="Yes" style="text;html=1;align=center;verticalAlign=middle;resizable=0;points=[];autosize=1;strokeColor=none;fillColor=#70FF45;" vertex="1" parent="1">
          <mxGeometry x="446.77" y="840" width="40" height="30" as="geometry" />
        </mxCell>
        <mxCell id="WHrIR2Ry2zltWRfsNIv8-1" value="Recursion" style="text;whiteSpace=wrap;fillColor=#FF0D05;" vertex="1" parent="1">
          <mxGeometry x="468.27" y="1030" width="62" height="28" as="geometry" />
        </mxCell>
        <mxCell id="WHrIR2Ry2zltWRfsNIv8-2" value="overload" style="text;whiteSpace=wrap;fillColor=#FF9933;" vertex="1" parent="1">
          <mxGeometry x="237" y="470" width="50" height="30" as="geometry" />
        </mxCell>
        <mxCell id="b4yHFFsAkxE56naviTIS-1" value="O(1)" style="text;html=1;align=center;verticalAlign=middle;resizable=0;points=[];autosize=1;strokeColor=#70FF45;fillColor=#70FF45;" vertex="1" parent="1">
          <mxGeometry x="658.52" y="510" width="50" height="30" as="geometry" />
        </mxCell>
        <mxCell id="b4yHFFsAkxE56naviTIS-2" value="O(1)" style="text;html=1;align=center;verticalAlign=middle;resizable=0;points=[];autosize=1;strokeColor=#70FF45;fillColor=#70FF45;" vertex="1" parent="1">
          <mxGeometry x="675.77" y="125" width="50" height="30" as="geometry" />
        </mxCell>
        <mxCell id="b4yHFFsAkxE56naviTIS-5" value="O(N)" style="text;html=1;align=center;verticalAlign=middle;resizable=0;points=[];autosize=1;strokeColor=#FF9933;fillColor=#FF9933;" vertex="1" parent="1">
          <mxGeometry x="675.77" y="385" width="50" height="30" as="geometry" />
        </mxCell>
        <mxCell id="b4yHFFsAkxE56naviTIS-6" value="O(1)" style="text;html=1;align=center;verticalAlign=middle;resizable=0;points=[];autosize=1;strokeColor=#70FF45;fillColor=#70FF45;" vertex="1" parent="1">
          <mxGeometry x="681.52" y="645" width="50" height="30" as="geometry" />
        </mxCell>
        <mxCell id="b4yHFFsAkxE56naviTIS-7" value="O(N)" style="text;html=1;align=center;verticalAlign=middle;resizable=0;points=[];autosize=1;strokeColor=#FF9933;fillColor=#FF9933;" vertex="1" parent="1">
          <mxGeometry x="671.52" y="233" width="50" height="30" as="geometry" />
        </mxCell>
        <mxCell id="b4yHFFsAkxE56naviTIS-8" value="" style="shape=curlyBracket;whiteSpace=wrap;html=1;rounded=1;flipH=1;labelPosition=right;verticalLabelPosition=middle;align=left;verticalAlign=middle;" vertex="1" parent="1">
          <mxGeometry x="731.52" y="115" width="20" height="670" as="geometry" />
        </mxCell>
        <mxCell id="b4yHFFsAkxE56naviTIS-9" value="O(N^2)" style="text;html=1;align=center;verticalAlign=middle;resizable=0;points=[];autosize=1;strokeColor=#FF9933;fillColor=#FF0D05;" vertex="1" parent="1">
          <mxGeometry x="761.52" y="435" width="60" height="30" as="geometry" />
        </mxCell>
        <mxCell id="ThX3uYLLCONS6nFxd40C-2" value="O(N*log(N))" style="text;html=1;align=center;verticalAlign=middle;resizable=0;points=[];autosize=1;strokeColor=#FF9933;fillColor=#FF6666;" vertex="1" parent="1">
          <mxGeometry x="196.77" y="923.5" width="90" height="30" as="geometry" />
        </mxCell>
        <mxCell id="KajGBjHXDRPZJ8iEsLwv-1" value="O(1)" style="text;html=1;align=center;verticalAlign=middle;resizable=0;points=[];autosize=1;strokeColor=#70FF45;fillColor=#70FF45;" vertex="1" parent="1">
          <mxGeometry x="448.27" y="930" width="50" height="30" as="geometry" />
        </mxCell>
        <mxCell id="KajGBjHXDRPZJ8iEsLwv-2" value="O(N*log(N))" style="text;html=1;align=center;verticalAlign=middle;resizable=0;points=[];autosize=1;strokeColor=#FF9933;fillColor=#FF6666;" vertex="1" parent="1">
          <mxGeometry x="468.27" y="1058" width="90" height="30" as="geometry" />
        </mxCell>
        <mxCell id="KajGBjHXDRPZJ8iEsLwv-3" value="" style="shape=curlyBracket;whiteSpace=wrap;html=1;rounded=1;flipH=1;labelPosition=right;verticalLabelPosition=middle;align=left;verticalAlign=middle;" vertex="1" parent="1">
          <mxGeometry x="554.27" y="720" width="20" height="430" as="geometry" />
        </mxCell>
        <mxCell id="KajGBjHXDRPZJ8iEsLwv-4" value="O(N*log(N))" style="text;html=1;align=center;verticalAlign=middle;resizable=0;points=[];autosize=1;strokeColor=#FF9933;fillColor=#FF6666;" vertex="1" parent="1">
          <mxGeometry x="585.02" y="916" width="90" height="30" as="geometry" />
        </mxCell>
        <mxCell id="KajGBjHXDRPZJ8iEsLwv-21" value="" style="shape=crossbar;whiteSpace=wrap;html=1;rounded=1;direction=south;" vertex="1" parent="1">
          <mxGeometry x="290.77" y="655" width="20" height="499" as="geometry" />
        </mxCell>
        <mxCell id="KajGBjHXDRPZJ8iEsLwv-23" value="" style="shape=curlyBracket;whiteSpace=wrap;html=1;rounded=1;labelPosition=left;verticalLabelPosition=middle;align=right;verticalAlign=middle;" vertex="1" parent="1">
          <mxGeometry x="105.77000000000001" y="767.5" width="20" height="280" as="geometry" />
        </mxCell>
        <mxCell id="KajGBjHXDRPZJ8iEsLwv-24" value="O(N*log(N))" style="text;html=1;align=center;verticalAlign=middle;resizable=0;points=[];autosize=1;strokeColor=#FF9933;fillColor=#FF6666;" vertex="1" parent="1">
          <mxGeometry x="10" y="893.5" width="90" height="30" as="geometry" />
        </mxCell>
        <mxCell id="nklT67EOUiy0-RGAYusr-1" value="O(N^2)" style="text;html=1;align=center;verticalAlign=middle;resizable=0;points=[];autosize=1;strokeColor=#FF9933;fillColor=#FF0D05;" vertex="1" parent="1">
          <mxGeometry x="200" y="190" width="60" height="30" as="geometry" />
        </mxCell>
        <mxCell id="nklT67EOUiy0-RGAYusr-2" value="O(N*log(N))" style="text;html=1;align=center;verticalAlign=middle;resizable=0;points=[];autosize=1;strokeColor=#FF9933;fillColor=#FF6666;" vertex="1" parent="1">
          <mxGeometry x="210.76999999999998" y="368" width="90" height="30" as="geometry" />
        </mxCell>
        <mxCell id="nklT67EOUiy0-RGAYusr-3" value="O(N*log(N))" style="text;html=1;align=center;verticalAlign=middle;resizable=0;points=[];autosize=1;strokeColor=#FF9933;fillColor=#FF6666;" vertex="1" parent="1">
          <mxGeometry x="217" y="580" width="90" height="30" as="geometry" />
        </mxCell>
        <mxCell id="AM1gwv-lgxX4Eq6BBEH0-1" value="O(N)" style="text;html=1;align=center;verticalAlign=middle;resizable=0;points=[];autosize=1;strokeColor=#FF9933;fillColor=#FF9933;" vertex="1" parent="1">
          <mxGeometry x="380.27" y="425" width="50" height="30" as="geometry" />
        </mxCell>
      </root>
    </mxGraphModel>
  </diagram>
  <diagram id="XiGMAkieQP_4hOglxmrk" name="2">
    <mxGraphModel dx="1075" dy="604" grid="1" gridSize="10" guides="1" tooltips="1" connect="1" arrows="1" fold="1" page="1" pageScale="1" pageWidth="827" pageHeight="1169" math="0" shadow="0">
      <root>
        <mxCell id="0" />
        <mxCell id="1" parent="0" />
        <mxCell id="TrbCekeJE1Sh1kDuo4cs-37" style="edgeStyle=orthogonalEdgeStyle;rounded=0;orthogonalLoop=1;jettySize=auto;html=1;entryX=1;entryY=0.5;entryDx=0;entryDy=0;" parent="1" edge="1">
          <mxGeometry relative="1" as="geometry">
            <Array as="points">
              <mxPoint x="800" y="2670" />
              <mxPoint x="800" y="2535" />
              <mxPoint x="801" y="2390" />
            </Array>
            <mxPoint x="780.5" y="2390" as="targetPoint" />
          </mxGeometry>
        </mxCell>
        <mxCell id="waijPrCpvddPm2eBe6ur-5" value="" style="edgeStyle=orthogonalEdgeStyle;rounded=0;orthogonalLoop=1;jettySize=auto;html=1;" edge="1" parent="1" source="waijPrCpvddPm2eBe6ur-1" target="waijPrCpvddPm2eBe6ur-2">
          <mxGeometry relative="1" as="geometry" />
        </mxCell>
        <mxCell id="waijPrCpvddPm2eBe6ur-1" value="Partition(int[] array, int low, int high)" style="ellipse;whiteSpace=wrap;html=1;" vertex="1" parent="1">
          <mxGeometry x="354" y="30" width="120" height="80" as="geometry" />
        </mxCell>
        <mxCell id="waijPrCpvddPm2eBe6ur-6" value="" style="edgeStyle=orthogonalEdgeStyle;rounded=0;orthogonalLoop=1;jettySize=auto;html=1;" edge="1" parent="1" source="waijPrCpvddPm2eBe6ur-2" target="waijPrCpvddPm2eBe6ur-3">
          <mxGeometry relative="1" as="geometry" />
        </mxCell>
        <mxCell id="waijPrCpvddPm2eBe6ur-2" value="int pivot = array[high];" style="rounded=0;whiteSpace=wrap;html=1;" vertex="1" parent="1">
          <mxGeometry x="354" y="160" width="120" height="60" as="geometry" />
        </mxCell>
        <mxCell id="waijPrCpvddPm2eBe6ur-7" value="" style="edgeStyle=orthogonalEdgeStyle;rounded=0;orthogonalLoop=1;jettySize=auto;html=1;" edge="1" parent="1" source="waijPrCpvddPm2eBe6ur-3" target="waijPrCpvddPm2eBe6ur-4">
          <mxGeometry relative="1" as="geometry" />
        </mxCell>
        <mxCell id="waijPrCpvddPm2eBe6ur-3" value="int i = (low - 1);" style="rounded=0;whiteSpace=wrap;html=1;" vertex="1" parent="1">
          <mxGeometry x="354" y="270" width="120" height="60" as="geometry" />
        </mxCell>
        <mxCell id="waijPrCpvddPm2eBe6ur-12" value="" style="edgeStyle=orthogonalEdgeStyle;rounded=0;orthogonalLoop=1;jettySize=auto;html=1;" edge="1" parent="1" source="waijPrCpvddPm2eBe6ur-4" target="waijPrCpvddPm2eBe6ur-8">
          <mxGeometry relative="1" as="geometry" />
        </mxCell>
        <mxCell id="waijPrCpvddPm2eBe6ur-19" style="edgeStyle=orthogonalEdgeStyle;rounded=0;orthogonalLoop=1;jettySize=auto;html=1;entryX=0;entryY=0.5;entryDx=0;entryDy=0;" edge="1" parent="1" source="waijPrCpvddPm2eBe6ur-4" target="waijPrCpvddPm2eBe6ur-17">
          <mxGeometry relative="1" as="geometry">
            <Array as="points">
              <mxPoint x="316" y="410" />
              <mxPoint x="316" y="885" />
            </Array>
          </mxGeometry>
        </mxCell>
        <mxCell id="waijPrCpvddPm2eBe6ur-4" value="for (int j = low; j &amp;lt; high; j++)" style="shape=hexagon;perimeter=hexagonPerimeter2;whiteSpace=wrap;html=1;fixedSize=1;" vertex="1" parent="1">
          <mxGeometry x="354" y="370" width="120" height="80" as="geometry" />
        </mxCell>
        <mxCell id="waijPrCpvddPm2eBe6ur-11" value="" style="edgeStyle=orthogonalEdgeStyle;rounded=0;orthogonalLoop=1;jettySize=auto;html=1;" edge="1" parent="1" source="waijPrCpvddPm2eBe6ur-8" target="waijPrCpvddPm2eBe6ur-9">
          <mxGeometry relative="1" as="geometry" />
        </mxCell>
        <mxCell id="waijPrCpvddPm2eBe6ur-14" style="edgeStyle=orthogonalEdgeStyle;rounded=0;orthogonalLoop=1;jettySize=auto;html=1;" edge="1" parent="1" source="waijPrCpvddPm2eBe6ur-8">
          <mxGeometry relative="1" as="geometry">
            <mxPoint x="490" y="535" as="targetPoint" />
          </mxGeometry>
        </mxCell>
        <mxCell id="waijPrCpvddPm2eBe6ur-8" value="if (array[j] &amp;lt; pivot)" style="rhombus;whiteSpace=wrap;html=1;" vertex="1" parent="1">
          <mxGeometry x="361" y="485" width="106" height="100" as="geometry" />
        </mxCell>
        <mxCell id="waijPrCpvddPm2eBe6ur-9" value="i++;" style="rounded=0;whiteSpace=wrap;html=1;" vertex="1" parent="1">
          <mxGeometry x="354" y="620" width="120" height="60" as="geometry" />
        </mxCell>
        <mxCell id="waijPrCpvddPm2eBe6ur-16" style="edgeStyle=orthogonalEdgeStyle;rounded=0;orthogonalLoop=1;jettySize=auto;html=1;entryX=1;entryY=0.5;entryDx=0;entryDy=0;" edge="1" parent="1" source="waijPrCpvddPm2eBe6ur-10" target="waijPrCpvddPm2eBe6ur-4">
          <mxGeometry relative="1" as="geometry">
            <Array as="points">
              <mxPoint x="494" y="760" />
              <mxPoint x="494" y="410" />
            </Array>
          </mxGeometry>
        </mxCell>
        <mxCell id="waijPrCpvddPm2eBe6ur-18" value="" style="edgeStyle=orthogonalEdgeStyle;rounded=0;orthogonalLoop=1;jettySize=auto;html=1;" edge="1" parent="1" source="waijPrCpvddPm2eBe6ur-10" target="waijPrCpvddPm2eBe6ur-17">
          <mxGeometry relative="1" as="geometry" />
        </mxCell>
        <mxCell id="waijPrCpvddPm2eBe6ur-10" value="&lt;div&gt;int temp = array[i];&lt;/div&gt;&lt;div&gt;array[i] = array[j];&lt;/div&gt;&lt;div&gt;array[j] = temp;&lt;/div&gt;" style="rounded=0;whiteSpace=wrap;html=1;" vertex="1" parent="1">
          <mxGeometry x="354" y="730" width="120" height="60" as="geometry" />
        </mxCell>
        <mxCell id="waijPrCpvddPm2eBe6ur-21" value="" style="edgeStyle=orthogonalEdgeStyle;rounded=0;orthogonalLoop=1;jettySize=auto;html=1;" edge="1" parent="1" source="waijPrCpvddPm2eBe6ur-17" target="waijPrCpvddPm2eBe6ur-20">
          <mxGeometry relative="1" as="geometry" />
        </mxCell>
        <mxCell id="waijPrCpvddPm2eBe6ur-17" value="int temp1 = array[i + 1];&#xa;array[i + 1] = array[high];&#xa;array[high] = temp1;" style="rounded=0;whiteSpace=wrap;html=1;" vertex="1" parent="1">
          <mxGeometry x="336" y="840" width="156" height="90" as="geometry" />
        </mxCell>
        <mxCell id="waijPrCpvddPm2eBe6ur-20" value="return i + 1;" style="shape=parallelogram;perimeter=parallelogramPerimeter;whiteSpace=wrap;html=1;fixedSize=1;" vertex="1" parent="1">
          <mxGeometry x="354" y="970" width="120" height="60" as="geometry" />
        </mxCell>
        <mxCell id="k11RGbRciy4mWt-5Bwvc-1" value="Yes" style="text;html=1;align=center;verticalAlign=middle;resizable=0;points=[];autosize=1;strokeColor=none;fillColor=#70FF45;" vertex="1" parent="1">
          <mxGeometry x="427" y="590" width="40" height="30" as="geometry" />
        </mxCell>
        <mxCell id="DWgsxGtMkCDkSCwNVfb_-1" value="No" style="text;html=1;align=center;verticalAlign=middle;resizable=0;points=[];autosize=1;strokeColor=none;fillColor=#FF0000;" vertex="1" parent="1">
          <mxGeometry x="452" y="500" width="40" height="30" as="geometry" />
        </mxCell>
        <mxCell id="DWgsxGtMkCDkSCwNVfb_-2" value="No" style="text;html=1;align=center;verticalAlign=middle;resizable=0;points=[];autosize=1;strokeColor=none;fillColor=#FF0000;" vertex="1" parent="1">
          <mxGeometry x="336" y="360" width="40" height="30" as="geometry" />
        </mxCell>
        <mxCell id="ALPvPmuiYPtUcGio_l3--1" value="O(1)" style="text;html=1;align=center;verticalAlign=middle;resizable=0;points=[];autosize=1;strokeColor=#70FF45;fillColor=#70FF45;" vertex="1" parent="1">
          <mxGeometry x="442" y="150" width="50" height="30" as="geometry" />
        </mxCell>
        <mxCell id="ALPvPmuiYPtUcGio_l3--2" value="O(1)" style="text;html=1;align=center;verticalAlign=middle;resizable=0;points=[];autosize=1;strokeColor=#70FF45;fillColor=#70FF45;" vertex="1" parent="1">
          <mxGeometry x="442" y="260" width="50" height="30" as="geometry" />
        </mxCell>
        <mxCell id="_rbEdeLYqC9IAGyZJuPQ-1" value="O(N)" style="text;html=1;align=center;verticalAlign=middle;resizable=0;points=[];autosize=1;strokeColor=#FF9933;fillColor=#FF9933;" vertex="1" parent="1">
          <mxGeometry x="442" y="350" width="50" height="30" as="geometry" />
        </mxCell>
        <mxCell id="_rbEdeLYqC9IAGyZJuPQ-2" value="O(1)" style="text;html=1;align=center;verticalAlign=middle;resizable=0;points=[];autosize=1;strokeColor=#70FF45;fillColor=#70FF45;" vertex="1" parent="1">
          <mxGeometry x="417" y="480" width="50" height="30" as="geometry" />
        </mxCell>
        <mxCell id="_rbEdeLYqC9IAGyZJuPQ-3" value="O(1)" style="text;html=1;align=center;verticalAlign=middle;resizable=0;points=[];autosize=1;strokeColor=#70FF45;fillColor=#70FF45;" vertex="1" parent="1">
          <mxGeometry x="442" y="670" width="50" height="30" as="geometry" />
        </mxCell>
        <mxCell id="_rbEdeLYqC9IAGyZJuPQ-4" value="O(1)" style="text;html=1;align=center;verticalAlign=middle;resizable=0;points=[];autosize=1;strokeColor=#70FF45;fillColor=#70FF45;" vertex="1" parent="1">
          <mxGeometry x="447" y="780" width="50" height="30" as="geometry" />
        </mxCell>
        <mxCell id="_rbEdeLYqC9IAGyZJuPQ-5" value="O(1)" style="text;html=1;align=center;verticalAlign=middle;resizable=0;points=[];autosize=1;strokeColor=#70FF45;fillColor=#70FF45;" vertex="1" parent="1">
          <mxGeometry x="474" y="910" width="50" height="30" as="geometry" />
        </mxCell>
        <mxCell id="_rbEdeLYqC9IAGyZJuPQ-6" value="O(1)" style="text;html=1;align=center;verticalAlign=middle;resizable=0;points=[];autosize=1;strokeColor=#70FF45;fillColor=#70FF45;" vertex="1" parent="1">
          <mxGeometry x="447" y="1020" width="50" height="30" as="geometry" />
        </mxCell>
        <mxCell id="_rbEdeLYqC9IAGyZJuPQ-7" value="" style="shape=curlyBracket;whiteSpace=wrap;html=1;rounded=1;flipH=1;labelPosition=right;verticalLabelPosition=middle;align=left;verticalAlign=middle;" vertex="1" parent="1">
          <mxGeometry x="524" y="140" width="20" height="920" as="geometry" />
        </mxCell>
        <mxCell id="_rbEdeLYqC9IAGyZJuPQ-8" value="O(N)" style="text;html=1;align=center;verticalAlign=middle;resizable=0;points=[];autosize=1;strokeColor=#FF9933;fillColor=#FF9933;" vertex="1" parent="1">
          <mxGeometry x="560" y="585" width="50" height="30" as="geometry" />
        </mxCell>
      </root>
    </mxGraphModel>
  </diagram>
</mxfile>
